<mxfile host="app.diagrams.net" modified="2023-12-31T10:26:25.210Z" agent="Mozilla/5.0 (Windows NT 10.0; Win64; x64) AppleWebKit/537.36 (KHTML, like Gecko) Chrome/120.0.0.0 Safari/537.36 Edg/120.0.0.0" etag="przg5zD7mQGC6-hSoIwO" version="22.1.16" type="device" pages="2">
  <diagram name="Page-1" id="w8ofkOLXV2BYDxtaH4v-">
    <mxGraphModel dx="992" dy="510" grid="1" gridSize="10" guides="1" tooltips="1" connect="1" arrows="1" fold="1" page="1" pageScale="1" pageWidth="2400" pageHeight="800" math="0" shadow="0">
      <root>
        <mxCell id="0" />
        <mxCell id="1" parent="0" />
        <mxCell id="L4EmFqghOlZ5tZnvImZ_-17" style="edgeStyle=orthogonalEdgeStyle;shape=connector;rounded=0;orthogonalLoop=1;jettySize=auto;html=1;exitX=1;exitY=0.75;exitDx=0;exitDy=0;entryX=0;entryY=0.5;entryDx=0;entryDy=0;labelBackgroundColor=default;strokeColor=default;align=center;verticalAlign=middle;fontFamily=Helvetica;fontSize=11;fontColor=default;endArrow=none;endFill=0;" edge="1" parent="1" source="Lp1CEwEdFW6QAOaDkrqb-2" target="L4EmFqghOlZ5tZnvImZ_-16">
          <mxGeometry relative="1" as="geometry" />
        </mxCell>
        <mxCell id="L4EmFqghOlZ5tZnvImZ_-20" value="1" style="edgeLabel;html=1;align=center;verticalAlign=middle;resizable=0;points=[];fontSize=14;fontFamily=Helvetica;fontColor=default;labelBackgroundColor=none;" vertex="1" connectable="0" parent="L4EmFqghOlZ5tZnvImZ_-17">
          <mxGeometry x="-0.2293" relative="1" as="geometry">
            <mxPoint x="-38" y="-28" as="offset" />
          </mxGeometry>
        </mxCell>
        <mxCell id="Lp1CEwEdFW6QAOaDkrqb-2" value="Product" style="rounded=0;whiteSpace=wrap;html=1;" parent="1" vertex="1">
          <mxGeometry x="1635" y="350" width="110" height="40" as="geometry" />
        </mxCell>
        <mxCell id="Lp1CEwEdFW6QAOaDkrqb-4" value="Order" style="rounded=0;whiteSpace=wrap;html=1;" parent="1" vertex="1">
          <mxGeometry x="1105" y="400" width="110" height="40" as="geometry" />
        </mxCell>
        <mxCell id="L60MXe94DrMWVsOr6QPD-137" style="edgeStyle=orthogonalEdgeStyle;shape=link;rounded=0;orthogonalLoop=1;jettySize=auto;html=1;exitX=1;exitY=1;exitDx=0;exitDy=0;entryX=0;entryY=0.5;entryDx=0;entryDy=0;labelBackgroundColor=default;strokeColor=default;align=center;verticalAlign=middle;fontFamily=Helvetica;fontSize=11;fontColor=default;endArrow=none;endFill=0;" parent="1" source="Lp1CEwEdFW6QAOaDkrqb-5" target="L60MXe94DrMWVsOr6QPD-136" edge="1">
          <mxGeometry relative="1" as="geometry">
            <Array as="points">
              <mxPoint x="1270" y="290" />
              <mxPoint x="1270" y="270" />
            </Array>
          </mxGeometry>
        </mxCell>
        <mxCell id="L60MXe94DrMWVsOr6QPD-140" value="M" style="edgeLabel;html=1;align=center;verticalAlign=middle;resizable=0;points=[];fontSize=14;fontFamily=Helvetica;fontColor=default;labelBackgroundColor=none;" parent="L60MXe94DrMWVsOr6QPD-137" vertex="1" connectable="0">
          <mxGeometry x="-0.0286" relative="1" as="geometry">
            <mxPoint x="-44" y="-10" as="offset" />
          </mxGeometry>
        </mxCell>
        <mxCell id="L60MXe94DrMWVsOr6QPD-148" style="edgeStyle=orthogonalEdgeStyle;shape=link;rounded=0;orthogonalLoop=1;jettySize=auto;html=1;exitX=1;exitY=0.25;exitDx=0;exitDy=0;entryX=0;entryY=0.5;entryDx=0;entryDy=0;labelBackgroundColor=default;strokeColor=default;align=center;verticalAlign=middle;fontFamily=Helvetica;fontSize=11;fontColor=default;endArrow=none;endFill=0;" parent="1" source="Lp1CEwEdFW6QAOaDkrqb-1" target="L60MXe94DrMWVsOr6QPD-147" edge="1">
          <mxGeometry relative="1" as="geometry">
            <Array as="points">
              <mxPoint x="840" y="260" />
              <mxPoint x="840" y="120" />
              <mxPoint x="1450" y="120" />
              <mxPoint x="1450" y="150" />
            </Array>
          </mxGeometry>
        </mxCell>
        <mxCell id="_Q0jS4deV_WJqcKFT8aQ-16" value="1" style="edgeLabel;html=1;align=center;verticalAlign=middle;resizable=0;points=[];fontSize=14;fontFamily=Helvetica;fontColor=default;labelBackgroundColor=none;" parent="L60MXe94DrMWVsOr6QPD-148" vertex="1" connectable="0">
          <mxGeometry x="0.0676" y="2" relative="1" as="geometry">
            <mxPoint x="-357" y="132" as="offset" />
          </mxGeometry>
        </mxCell>
        <mxCell id="Lp1CEwEdFW6QAOaDkrqb-5" value="Review" style="rounded=0;whiteSpace=wrap;html=1;" parent="1" vertex="1">
          <mxGeometry x="1090" y="250" width="110" height="40" as="geometry" />
        </mxCell>
        <mxCell id="L60MXe94DrMWVsOr6QPD-61" style="edgeStyle=none;shape=connector;rounded=0;orthogonalLoop=1;jettySize=auto;html=1;exitX=0.5;exitY=0;exitDx=0;exitDy=0;entryX=1;entryY=0.5;entryDx=0;entryDy=0;labelBackgroundColor=default;strokeColor=default;align=center;verticalAlign=middle;fontFamily=Helvetica;fontSize=11;fontColor=default;endArrow=none;endFill=0;" parent="1" source="Lp1CEwEdFW6QAOaDkrqb-7" target="L60MXe94DrMWVsOr6QPD-58" edge="1">
          <mxGeometry relative="1" as="geometry" />
        </mxCell>
        <mxCell id="Lp1CEwEdFW6QAOaDkrqb-7" value="Wish Item" style="rounded=0;whiteSpace=wrap;html=1;" parent="1" vertex="1">
          <mxGeometry x="1635" y="560" width="110" height="40" as="geometry" />
        </mxCell>
        <mxCell id="L60MXe94DrMWVsOr6QPD-67" style="edgeStyle=none;shape=connector;rounded=0;orthogonalLoop=1;jettySize=auto;html=1;exitX=0;exitY=0;exitDx=0;exitDy=0;entryX=0.5;entryY=1;entryDx=0;entryDy=0;labelBackgroundColor=default;strokeColor=default;align=center;verticalAlign=middle;fontFamily=Helvetica;fontSize=11;fontColor=default;endArrow=none;endFill=0;" parent="1" source="Lp1CEwEdFW6QAOaDkrqb-8" target="L60MXe94DrMWVsOr6QPD-66" edge="1">
          <mxGeometry relative="1" as="geometry" />
        </mxCell>
        <mxCell id="Lp1CEwEdFW6QAOaDkrqb-8" value="Cart" style="rounded=0;whiteSpace=wrap;html=1;" parent="1" vertex="1">
          <mxGeometry x="2040" y="350" width="110" height="40" as="geometry" />
        </mxCell>
        <mxCell id="L60MXe94DrMWVsOr6QPD-88" style="edgeStyle=none;shape=link;rounded=0;orthogonalLoop=1;jettySize=auto;html=1;exitX=1;exitY=0.5;exitDx=0;exitDy=0;entryX=0;entryY=0.5;entryDx=0;entryDy=0;labelBackgroundColor=default;strokeColor=default;align=center;verticalAlign=middle;fontFamily=Helvetica;fontSize=11;fontColor=default;endArrow=none;endFill=0;" parent="1" source="Lp1CEwEdFW6QAOaDkrqb-9" target="L60MXe94DrMWVsOr6QPD-106" edge="1">
          <mxGeometry relative="1" as="geometry">
            <mxPoint x="389.9999999999998" y="430" as="targetPoint" />
          </mxGeometry>
        </mxCell>
        <mxCell id="L60MXe94DrMWVsOr6QPD-91" value="&lt;font style=&quot;font-size: 14px;&quot;&gt;M&lt;/font&gt;" style="edgeLabel;html=1;align=center;verticalAlign=middle;resizable=0;points=[];fontSize=11;fontFamily=Helvetica;fontColor=default;labelBackgroundColor=none;" parent="L60MXe94DrMWVsOr6QPD-88" vertex="1" connectable="0">
          <mxGeometry x="0.0632" y="3" relative="1" as="geometry">
            <mxPoint x="-33" y="-7" as="offset" />
          </mxGeometry>
        </mxCell>
        <mxCell id="Lp1CEwEdFW6QAOaDkrqb-9" value="Statistics Widgets" style="rounded=0;whiteSpace=wrap;html=1;" parent="1" vertex="1">
          <mxGeometry x="190" y="410" width="110" height="40" as="geometry" />
        </mxCell>
        <mxCell id="L60MXe94DrMWVsOr6QPD-5" style="edgeStyle=orthogonalEdgeStyle;rounded=0;orthogonalLoop=1;jettySize=auto;html=1;entryX=0;entryY=0.5;entryDx=0;entryDy=0;endArrow=none;endFill=0;" parent="1" source="Lp1CEwEdFW6QAOaDkrqb-1" target="L60MXe94DrMWVsOr6QPD-1" edge="1">
          <mxGeometry relative="1" as="geometry" />
        </mxCell>
        <mxCell id="Lp1CEwEdFW6QAOaDkrqb-14" value="Email" style="ellipse;whiteSpace=wrap;html=1;" parent="1" vertex="1">
          <mxGeometry x="410" y="225" width="90" height="40" as="geometry" />
        </mxCell>
        <mxCell id="L60MXe94DrMWVsOr6QPD-4" value="" style="group" parent="1" vertex="1" connectable="0">
          <mxGeometry x="640" y="330" width="70" height="40" as="geometry" />
        </mxCell>
        <mxCell id="L60MXe94DrMWVsOr6QPD-1" value="" style="triangle;whiteSpace=wrap;html=1;rotation=90;" parent="L60MXe94DrMWVsOr6QPD-4" vertex="1">
          <mxGeometry x="11.666666666666666" y="-10" width="46.666666666666664" height="60" as="geometry" />
        </mxCell>
        <mxCell id="L60MXe94DrMWVsOr6QPD-3" value="Is a" style="text;html=1;strokeColor=none;fillColor=none;align=center;verticalAlign=middle;whiteSpace=wrap;rounded=0;" parent="L60MXe94DrMWVsOr6QPD-4" vertex="1">
          <mxGeometry x="11.666666666666666" y="5" width="46.666666666666664" height="20" as="geometry" />
        </mxCell>
        <mxCell id="L60MXe94DrMWVsOr6QPD-6" style="edgeStyle=orthogonalEdgeStyle;rounded=0;orthogonalLoop=1;jettySize=auto;html=1;exitX=1;exitY=0.5;exitDx=0;exitDy=0;entryX=0.5;entryY=0;entryDx=0;entryDy=0;endArrow=none;endFill=0;" parent="1" source="L60MXe94DrMWVsOr6QPD-1" target="Lp1CEwEdFW6QAOaDkrqb-3" edge="1">
          <mxGeometry relative="1" as="geometry" />
        </mxCell>
        <mxCell id="Lp1CEwEdFW6QAOaDkrqb-1" value="User" style="rounded=0;whiteSpace=wrap;html=1;" parent="1" vertex="1">
          <mxGeometry x="620" y="250" width="110" height="40" as="geometry" />
        </mxCell>
        <mxCell id="Lp1CEwEdFW6QAOaDkrqb-11" style="rounded=0;orthogonalLoop=1;jettySize=auto;html=1;exitX=1;exitY=1;exitDx=0;exitDy=0;entryX=0;entryY=0;entryDx=0;entryDy=0;endArrow=none;endFill=0;" parent="1" source="Lp1CEwEdFW6QAOaDkrqb-10" target="Lp1CEwEdFW6QAOaDkrqb-1" edge="1">
          <mxGeometry relative="1" as="geometry" />
        </mxCell>
        <mxCell id="Lp1CEwEdFW6QAOaDkrqb-10" value="&lt;u&gt;User ID&lt;/u&gt;" style="ellipse;whiteSpace=wrap;html=1;" parent="1" vertex="1">
          <mxGeometry x="480" y="185" width="90" height="40" as="geometry" />
        </mxCell>
        <mxCell id="Lp1CEwEdFW6QAOaDkrqb-23" style="edgeStyle=none;rounded=0;orthogonalLoop=1;jettySize=auto;html=1;exitX=1;exitY=1;exitDx=0;exitDy=0;entryX=0.25;entryY=0;entryDx=0;entryDy=0;endArrow=none;endFill=0;" parent="1" source="Lp1CEwEdFW6QAOaDkrqb-12" target="Lp1CEwEdFW6QAOaDkrqb-1" edge="1">
          <mxGeometry relative="1" as="geometry" />
        </mxCell>
        <mxCell id="Lp1CEwEdFW6QAOaDkrqb-12" value="Username" style="ellipse;whiteSpace=wrap;html=1;" parent="1" vertex="1">
          <mxGeometry x="470" y="130" width="90" height="40" as="geometry" />
        </mxCell>
        <mxCell id="Lp1CEwEdFW6QAOaDkrqb-21" style="edgeStyle=none;rounded=0;orthogonalLoop=1;jettySize=auto;html=1;exitX=0.5;exitY=1;exitDx=0;exitDy=0;entryX=0.5;entryY=0;entryDx=0;entryDy=0;endArrow=none;endFill=0;" parent="1" source="Lp1CEwEdFW6QAOaDkrqb-13" target="Lp1CEwEdFW6QAOaDkrqb-1" edge="1">
          <mxGeometry relative="1" as="geometry" />
        </mxCell>
        <mxCell id="Lp1CEwEdFW6QAOaDkrqb-13" value="Password" style="ellipse;whiteSpace=wrap;html=1;" parent="1" vertex="1">
          <mxGeometry x="630" y="80" width="90" height="40" as="geometry" />
        </mxCell>
        <mxCell id="Lp1CEwEdFW6QAOaDkrqb-20" style="edgeStyle=none;rounded=0;orthogonalLoop=1;jettySize=auto;html=1;exitX=1;exitY=0.5;exitDx=0;exitDy=0;entryX=0;entryY=0.5;entryDx=0;entryDy=0;endArrow=none;endFill=0;" parent="1" source="Lp1CEwEdFW6QAOaDkrqb-14" target="Lp1CEwEdFW6QAOaDkrqb-1" edge="1">
          <mxGeometry relative="1" as="geometry" />
        </mxCell>
        <mxCell id="Lp1CEwEdFW6QAOaDkrqb-18" style="edgeStyle=none;rounded=0;orthogonalLoop=1;jettySize=auto;html=1;exitX=0.5;exitY=1;exitDx=0;exitDy=0;entryX=0.5;entryY=0;entryDx=0;entryDy=0;endArrow=none;endFill=0;" parent="1" source="Lp1CEwEdFW6QAOaDkrqb-15" target="Lp1CEwEdFW6QAOaDkrqb-1" edge="1">
          <mxGeometry relative="1" as="geometry" />
        </mxCell>
        <mxCell id="Lp1CEwEdFW6QAOaDkrqb-15" value="First Name" style="ellipse;whiteSpace=wrap;html=1;" parent="1" vertex="1">
          <mxGeometry x="690" y="120" width="90" height="40" as="geometry" />
        </mxCell>
        <mxCell id="Lp1CEwEdFW6QAOaDkrqb-19" style="edgeStyle=none;rounded=0;orthogonalLoop=1;jettySize=auto;html=1;exitX=0.5;exitY=1;exitDx=0;exitDy=0;entryX=0.25;entryY=0;entryDx=0;entryDy=0;endArrow=none;endFill=0;" parent="1" source="Lp1CEwEdFW6QAOaDkrqb-16" target="Lp1CEwEdFW6QAOaDkrqb-1" edge="1">
          <mxGeometry relative="1" as="geometry" />
        </mxCell>
        <mxCell id="Lp1CEwEdFW6QAOaDkrqb-16" value="Last Name" style="ellipse;whiteSpace=wrap;html=1;" parent="1" vertex="1">
          <mxGeometry x="580" y="130" width="90" height="40" as="geometry" />
        </mxCell>
        <mxCell id="Lp1CEwEdFW6QAOaDkrqb-22" style="edgeStyle=none;rounded=0;orthogonalLoop=1;jettySize=auto;html=1;exitX=0.5;exitY=1;exitDx=0;exitDy=0;entryX=0.75;entryY=0;entryDx=0;entryDy=0;endArrow=none;endFill=0;" parent="1" source="EQjUbwfXLJsyXit4vQer-1" target="Lp1CEwEdFW6QAOaDkrqb-1" edge="1">
          <mxGeometry relative="1" as="geometry">
            <mxPoint x="815" y="105" as="sourcePoint" />
          </mxGeometry>
        </mxCell>
        <mxCell id="L60MXe94DrMWVsOr6QPD-119" style="edgeStyle=orthogonalEdgeStyle;shape=connector;rounded=0;orthogonalLoop=1;jettySize=auto;html=1;exitX=1;exitY=1;exitDx=0;exitDy=0;entryX=0;entryY=0.5;entryDx=0;entryDy=0;labelBackgroundColor=default;strokeColor=default;align=center;verticalAlign=middle;fontFamily=Helvetica;fontSize=11;fontColor=default;endArrow=none;endFill=0;" parent="1" source="Lp1CEwEdFW6QAOaDkrqb-3" target="L60MXe94DrMWVsOr6QPD-118" edge="1">
          <mxGeometry relative="1" as="geometry">
            <Array as="points">
              <mxPoint x="840" y="450" />
              <mxPoint x="840" y="610" />
            </Array>
          </mxGeometry>
        </mxCell>
        <mxCell id="L60MXe94DrMWVsOr6QPD-121" value="&lt;font style=&quot;font-size: 14px;&quot;&gt;0..1&lt;/font&gt;" style="edgeLabel;html=1;align=center;verticalAlign=middle;resizable=0;points=[];fontSize=11;fontFamily=Helvetica;fontColor=default;labelBackgroundColor=none;" parent="L60MXe94DrMWVsOr6QPD-119" vertex="1" connectable="0">
          <mxGeometry x="-0.9361" relative="1" as="geometry">
            <mxPoint x="-4" y="10" as="offset" />
          </mxGeometry>
        </mxCell>
        <mxCell id="Lp1CEwEdFW6QAOaDkrqb-3" value="Seller/Vendor" style="rounded=0;whiteSpace=wrap;html=1;" parent="1" vertex="1">
          <mxGeometry x="620" y="410" width="110" height="40" as="geometry" />
        </mxCell>
        <mxCell id="L60MXe94DrMWVsOr6QPD-8" style="rounded=0;orthogonalLoop=1;jettySize=auto;html=1;exitX=0.5;exitY=0;exitDx=0;exitDy=0;entryX=0.5;entryY=1;entryDx=0;entryDy=0;endArrow=none;endFill=0;" parent="1" source="L60MXe94DrMWVsOr6QPD-7" target="Lp1CEwEdFW6QAOaDkrqb-3" edge="1">
          <mxGeometry relative="1" as="geometry">
            <mxPoint x="600" y="410" as="targetPoint" />
          </mxGeometry>
        </mxCell>
        <mxCell id="L60MXe94DrMWVsOr6QPD-15" style="edgeStyle=none;shape=connector;rounded=0;orthogonalLoop=1;jettySize=auto;html=1;exitX=0.5;exitY=1;exitDx=0;exitDy=0;entryX=0.5;entryY=0;entryDx=0;entryDy=0;labelBackgroundColor=default;strokeColor=default;align=center;verticalAlign=middle;fontFamily=Helvetica;fontSize=11;fontColor=default;endArrow=none;endFill=0;" parent="1" source="L60MXe94DrMWVsOr6QPD-7" target="L60MXe94DrMWVsOr6QPD-12" edge="1">
          <mxGeometry relative="1" as="geometry" />
        </mxCell>
        <mxCell id="L60MXe94DrMWVsOr6QPD-17" style="edgeStyle=none;shape=connector;rounded=0;orthogonalLoop=1;jettySize=auto;html=1;exitX=0.5;exitY=1;exitDx=0;exitDy=0;entryX=0.5;entryY=0;entryDx=0;entryDy=0;labelBackgroundColor=default;strokeColor=default;align=center;verticalAlign=middle;fontFamily=Helvetica;fontSize=11;fontColor=default;endArrow=none;endFill=0;" parent="1" source="L60MXe94DrMWVsOr6QPD-7" target="L60MXe94DrMWVsOr6QPD-14" edge="1">
          <mxGeometry relative="1" as="geometry" />
        </mxCell>
        <mxCell id="L60MXe94DrMWVsOr6QPD-7" value="Location" style="ellipse;whiteSpace=wrap;html=1;" parent="1" vertex="1">
          <mxGeometry x="630" y="490" width="90" height="40" as="geometry" />
        </mxCell>
        <mxCell id="L60MXe94DrMWVsOr6QPD-12" value="Neighborhood&amp;nbsp;" style="ellipse;whiteSpace=wrap;html=1;" parent="1" vertex="1">
          <mxGeometry x="570" y="580" width="90" height="40" as="geometry" />
        </mxCell>
        <mxCell id="L60MXe94DrMWVsOr6QPD-14" value="City" style="ellipse;whiteSpace=wrap;html=1;" parent="1" vertex="1">
          <mxGeometry x="680" y="580" width="90" height="40" as="geometry" />
        </mxCell>
        <mxCell id="L60MXe94DrMWVsOr6QPD-19" style="edgeStyle=none;shape=connector;rounded=0;orthogonalLoop=1;jettySize=auto;html=1;exitX=0.5;exitY=0;exitDx=0;exitDy=0;entryX=0.75;entryY=1;entryDx=0;entryDy=0;labelBackgroundColor=default;strokeColor=default;align=center;verticalAlign=middle;fontFamily=Helvetica;fontSize=11;fontColor=default;endArrow=none;endFill=0;" parent="1" source="L60MXe94DrMWVsOr6QPD-18" target="Lp1CEwEdFW6QAOaDkrqb-2" edge="1">
          <mxGeometry relative="1" as="geometry" />
        </mxCell>
        <mxCell id="L60MXe94DrMWVsOr6QPD-18" value="&lt;u&gt;Product ID&lt;/u&gt;" style="ellipse;whiteSpace=wrap;html=1;" parent="1" vertex="1">
          <mxGeometry x="1710" y="480" width="90" height="40" as="geometry" />
        </mxCell>
        <mxCell id="L60MXe94DrMWVsOr6QPD-22" style="edgeStyle=none;shape=connector;rounded=0;orthogonalLoop=1;jettySize=auto;html=1;exitX=0.5;exitY=1;exitDx=0;exitDy=0;entryX=0.25;entryY=0;entryDx=0;entryDy=0;labelBackgroundColor=default;strokeColor=default;align=center;verticalAlign=middle;fontFamily=Helvetica;fontSize=11;fontColor=default;endArrow=none;endFill=0;" parent="1" source="L60MXe94DrMWVsOr6QPD-21" target="Lp1CEwEdFW6QAOaDkrqb-2" edge="1">
          <mxGeometry relative="1" as="geometry" />
        </mxCell>
        <mxCell id="L60MXe94DrMWVsOr6QPD-21" value="Product Name" style="ellipse;whiteSpace=wrap;html=1;" parent="1" vertex="1">
          <mxGeometry x="1580" y="225" width="90" height="40" as="geometry" />
        </mxCell>
        <mxCell id="L60MXe94DrMWVsOr6QPD-24" style="edgeStyle=none;shape=connector;rounded=0;orthogonalLoop=1;jettySize=auto;html=1;exitX=0.5;exitY=1;exitDx=0;exitDy=0;entryX=0.5;entryY=0;entryDx=0;entryDy=0;labelBackgroundColor=default;strokeColor=default;align=center;verticalAlign=middle;fontFamily=Helvetica;fontSize=11;fontColor=default;endArrow=none;endFill=0;" parent="1" source="L60MXe94DrMWVsOr6QPD-23" target="Lp1CEwEdFW6QAOaDkrqb-2" edge="1">
          <mxGeometry relative="1" as="geometry" />
        </mxCell>
        <mxCell id="L60MXe94DrMWVsOr6QPD-23" value="Price" style="ellipse;whiteSpace=wrap;html=1;" parent="1" vertex="1">
          <mxGeometry x="1645" y="180" width="90" height="40" as="geometry" />
        </mxCell>
        <mxCell id="L60MXe94DrMWVsOr6QPD-26" style="edgeStyle=none;shape=connector;rounded=0;orthogonalLoop=1;jettySize=auto;html=1;exitX=0.5;exitY=1;exitDx=0;exitDy=0;entryX=0.75;entryY=0;entryDx=0;entryDy=0;labelBackgroundColor=default;strokeColor=default;align=center;verticalAlign=middle;fontFamily=Helvetica;fontSize=11;fontColor=default;endArrow=none;endFill=0;" parent="1" source="L60MXe94DrMWVsOr6QPD-25" target="Lp1CEwEdFW6QAOaDkrqb-2" edge="1">
          <mxGeometry relative="1" as="geometry" />
        </mxCell>
        <mxCell id="L60MXe94DrMWVsOr6QPD-25" value="Product Status" style="ellipse;whiteSpace=wrap;html=1;" parent="1" vertex="1">
          <mxGeometry x="1715" y="230" width="90" height="40" as="geometry" />
        </mxCell>
        <mxCell id="L60MXe94DrMWVsOr6QPD-28" style="edgeStyle=none;shape=connector;rounded=0;orthogonalLoop=1;jettySize=auto;html=1;exitX=0;exitY=1;exitDx=0;exitDy=0;entryX=1;entryY=0;entryDx=0;entryDy=0;labelBackgroundColor=default;strokeColor=default;align=center;verticalAlign=middle;fontFamily=Helvetica;fontSize=11;fontColor=default;endArrow=none;endFill=0;" parent="1" source="L60MXe94DrMWVsOr6QPD-27" target="Lp1CEwEdFW6QAOaDkrqb-2" edge="1">
          <mxGeometry relative="1" as="geometry" />
        </mxCell>
        <mxCell id="L60MXe94DrMWVsOr6QPD-27" value="Description" style="ellipse;whiteSpace=wrap;html=1;" parent="1" vertex="1">
          <mxGeometry x="1785" y="280" width="90" height="40" as="geometry" />
        </mxCell>
        <mxCell id="L60MXe94DrMWVsOr6QPD-30" style="edgeStyle=none;shape=connector;rounded=0;orthogonalLoop=1;jettySize=auto;html=1;exitX=0.5;exitY=0;exitDx=0;exitDy=0;entryX=0.25;entryY=1;entryDx=0;entryDy=0;labelBackgroundColor=default;strokeColor=default;align=center;verticalAlign=middle;fontFamily=Helvetica;fontSize=11;fontColor=default;endArrow=none;endFill=0;" parent="1" source="L60MXe94DrMWVsOr6QPD-29" target="Lp1CEwEdFW6QAOaDkrqb-4" edge="1">
          <mxGeometry relative="1" as="geometry" />
        </mxCell>
        <mxCell id="L60MXe94DrMWVsOr6QPD-29" value="&lt;u&gt;Order ID&lt;/u&gt;" style="ellipse;whiteSpace=wrap;html=1;" parent="1" vertex="1">
          <mxGeometry x="1025" y="480" width="90" height="40" as="geometry" />
        </mxCell>
        <mxCell id="L60MXe94DrMWVsOr6QPD-32" style="edgeStyle=none;shape=connector;rounded=0;orthogonalLoop=1;jettySize=auto;html=1;exitX=0.5;exitY=0;exitDx=0;exitDy=0;entryX=0.5;entryY=1;entryDx=0;entryDy=0;labelBackgroundColor=default;strokeColor=default;align=center;verticalAlign=middle;fontFamily=Helvetica;fontSize=11;fontColor=default;endArrow=none;endFill=0;" parent="1" source="L60MXe94DrMWVsOr6QPD-31" target="Lp1CEwEdFW6QAOaDkrqb-4" edge="1">
          <mxGeometry relative="1" as="geometry" />
        </mxCell>
        <mxCell id="L60MXe94DrMWVsOr6QPD-31" value="Order Status" style="ellipse;whiteSpace=wrap;html=1;" parent="1" vertex="1">
          <mxGeometry x="1130" y="480" width="90" height="40" as="geometry" />
        </mxCell>
        <mxCell id="L60MXe94DrMWVsOr6QPD-34" style="edgeStyle=none;shape=connector;rounded=0;orthogonalLoop=1;jettySize=auto;html=1;exitX=0.5;exitY=0;exitDx=0;exitDy=0;entryX=0.75;entryY=1;entryDx=0;entryDy=0;labelBackgroundColor=default;strokeColor=default;align=center;verticalAlign=middle;fontFamily=Helvetica;fontSize=11;fontColor=default;endArrow=none;endFill=0;" parent="1" source="L60MXe94DrMWVsOr6QPD-33" target="Lp1CEwEdFW6QAOaDkrqb-4" edge="1">
          <mxGeometry relative="1" as="geometry" />
        </mxCell>
        <mxCell id="L60MXe94DrMWVsOr6QPD-33" value="Quantity" style="ellipse;whiteSpace=wrap;html=1;" parent="1" vertex="1">
          <mxGeometry x="1235" y="480" width="90" height="40" as="geometry" />
        </mxCell>
        <mxCell id="L60MXe94DrMWVsOr6QPD-36" style="edgeStyle=none;shape=connector;rounded=0;orthogonalLoop=1;jettySize=auto;html=1;exitX=0.5;exitY=1;exitDx=0;exitDy=0;entryX=0.75;entryY=0;entryDx=0;entryDy=0;labelBackgroundColor=default;strokeColor=default;align=center;verticalAlign=middle;fontFamily=Helvetica;fontSize=11;fontColor=default;endArrow=none;endFill=0;" parent="1" source="_Q0jS4deV_WJqcKFT8aQ-15" target="Lp1CEwEdFW6QAOaDkrqb-5" edge="1">
          <mxGeometry relative="1" as="geometry">
            <mxPoint x="1175" y="225" as="sourcePoint" />
          </mxGeometry>
        </mxCell>
        <mxCell id="L60MXe94DrMWVsOr6QPD-38" style="edgeStyle=none;shape=connector;rounded=0;orthogonalLoop=1;jettySize=auto;html=1;exitX=0.5;exitY=1;exitDx=0;exitDy=0;entryX=0.5;entryY=0;entryDx=0;entryDy=0;labelBackgroundColor=default;strokeColor=default;align=center;verticalAlign=middle;fontFamily=Helvetica;fontSize=11;fontColor=default;endArrow=none;endFill=0;" parent="1" source="L60MXe94DrMWVsOr6QPD-37" target="Lp1CEwEdFW6QAOaDkrqb-5" edge="1">
          <mxGeometry relative="1" as="geometry" />
        </mxCell>
        <mxCell id="L60MXe94DrMWVsOr6QPD-37" value="Comment" style="ellipse;whiteSpace=wrap;html=1;" parent="1" vertex="1">
          <mxGeometry x="1090" y="165" width="90" height="40" as="geometry" />
        </mxCell>
        <mxCell id="L60MXe94DrMWVsOr6QPD-40" style="edgeStyle=none;shape=connector;rounded=0;orthogonalLoop=1;jettySize=auto;html=1;exitX=0.5;exitY=1;exitDx=0;exitDy=0;entryX=0.25;entryY=0;entryDx=0;entryDy=0;labelBackgroundColor=default;strokeColor=default;align=center;verticalAlign=middle;fontFamily=Helvetica;fontSize=11;fontColor=default;endArrow=none;endFill=0;" parent="1" source="L60MXe94DrMWVsOr6QPD-39" target="Lp1CEwEdFW6QAOaDkrqb-5" edge="1">
          <mxGeometry relative="1" as="geometry" />
        </mxCell>
        <mxCell id="L60MXe94DrMWVsOr6QPD-39" value="&lt;u&gt;Review ID&lt;/u&gt;" style="ellipse;whiteSpace=wrap;html=1;" parent="1" vertex="1">
          <mxGeometry x="990" y="180" width="90" height="40" as="geometry" />
        </mxCell>
        <mxCell id="L60MXe94DrMWVsOr6QPD-42" style="edgeStyle=none;shape=connector;rounded=0;orthogonalLoop=1;jettySize=auto;html=1;exitX=0.5;exitY=1;exitDx=0;exitDy=0;entryX=0.25;entryY=0;entryDx=0;entryDy=0;labelBackgroundColor=default;strokeColor=default;align=center;verticalAlign=middle;fontFamily=Helvetica;fontSize=11;fontColor=default;endArrow=none;endFill=0;" parent="1" source="L60MXe94DrMWVsOr6QPD-41" target="Lp1CEwEdFW6QAOaDkrqb-9" edge="1">
          <mxGeometry relative="1" as="geometry" />
        </mxCell>
        <mxCell id="L60MXe94DrMWVsOr6QPD-41" value="Revenue" style="ellipse;whiteSpace=wrap;html=1;" parent="1" vertex="1">
          <mxGeometry x="100" y="330" width="90" height="40" as="geometry" />
        </mxCell>
        <mxCell id="L60MXe94DrMWVsOr6QPD-45" style="edgeStyle=none;shape=connector;rounded=0;orthogonalLoop=1;jettySize=auto;html=1;exitX=0.5;exitY=0;exitDx=0;exitDy=0;entryX=0.25;entryY=1;entryDx=0;entryDy=0;labelBackgroundColor=default;strokeColor=default;align=center;verticalAlign=middle;fontFamily=Helvetica;fontSize=11;fontColor=default;endArrow=none;endFill=0;" parent="1" source="L60MXe94DrMWVsOr6QPD-44" target="Lp1CEwEdFW6QAOaDkrqb-9" edge="1">
          <mxGeometry relative="1" as="geometry" />
        </mxCell>
        <mxCell id="L60MXe94DrMWVsOr6QPD-44" value="&lt;u&gt;ID&lt;/u&gt;" style="ellipse;whiteSpace=wrap;html=1;" parent="1" vertex="1">
          <mxGeometry x="100" y="540" width="90" height="40" as="geometry" />
        </mxCell>
        <mxCell id="L60MXe94DrMWVsOr6QPD-47" style="edgeStyle=none;shape=connector;rounded=0;orthogonalLoop=1;jettySize=auto;html=1;exitX=0.5;exitY=0;exitDx=0;exitDy=0;entryX=0.5;entryY=1;entryDx=0;entryDy=0;labelBackgroundColor=default;strokeColor=default;align=center;verticalAlign=middle;fontFamily=Helvetica;fontSize=11;fontColor=default;endArrow=none;endFill=0;" parent="1" source="L60MXe94DrMWVsOr6QPD-46" target="Lp1CEwEdFW6QAOaDkrqb-9" edge="1">
          <mxGeometry relative="1" as="geometry" />
        </mxCell>
        <mxCell id="L60MXe94DrMWVsOr6QPD-46" value="Loss" style="ellipse;whiteSpace=wrap;html=1;" parent="1" vertex="1">
          <mxGeometry x="200" y="500" width="90" height="40" as="geometry" />
        </mxCell>
        <mxCell id="L60MXe94DrMWVsOr6QPD-146" style="edgeStyle=orthogonalEdgeStyle;shape=connector;rounded=0;orthogonalLoop=1;jettySize=auto;html=1;exitX=0.5;exitY=1;exitDx=0;exitDy=0;entryX=0.5;entryY=0;entryDx=0;entryDy=0;labelBackgroundColor=default;strokeColor=default;align=center;verticalAlign=middle;fontFamily=Helvetica;fontSize=11;fontColor=default;endArrow=none;endFill=0;" parent="1" source="L60MXe94DrMWVsOr6QPD-48" target="Lp1CEwEdFW6QAOaDkrqb-9" edge="1">
          <mxGeometry relative="1" as="geometry" />
        </mxCell>
        <mxCell id="L60MXe94DrMWVsOr6QPD-48" value="Profit" style="ellipse;whiteSpace=wrap;html=1;" parent="1" vertex="1">
          <mxGeometry x="200" y="280" width="90" height="40" as="geometry" />
        </mxCell>
        <mxCell id="L60MXe94DrMWVsOr6QPD-51" style="edgeStyle=none;shape=connector;rounded=0;orthogonalLoop=1;jettySize=auto;html=1;exitX=0.5;exitY=1;exitDx=0;exitDy=0;labelBackgroundColor=default;strokeColor=default;align=center;verticalAlign=middle;fontFamily=Helvetica;fontSize=11;fontColor=default;endArrow=none;endFill=0;entryX=0.75;entryY=0;entryDx=0;entryDy=0;" parent="1" source="L60MXe94DrMWVsOr6QPD-50" target="Lp1CEwEdFW6QAOaDkrqb-9" edge="1">
          <mxGeometry relative="1" as="geometry">
            <mxPoint x="330" y="480" as="targetPoint" />
          </mxGeometry>
        </mxCell>
        <mxCell id="L60MXe94DrMWVsOr6QPD-50" value="Total Listings" style="ellipse;whiteSpace=wrap;html=1;" parent="1" vertex="1">
          <mxGeometry x="310" y="330" width="90" height="40" as="geometry" />
        </mxCell>
        <mxCell id="L60MXe94DrMWVsOr6QPD-57" value="" style="group" parent="1" vertex="1" connectable="0">
          <mxGeometry x="1655" y="440" width="70" height="40" as="geometry" />
        </mxCell>
        <mxCell id="L60MXe94DrMWVsOr6QPD-58" value="" style="triangle;whiteSpace=wrap;html=1;rotation=90;" parent="L60MXe94DrMWVsOr6QPD-57" vertex="1">
          <mxGeometry x="11.666666666666666" y="-10" width="46.666666666666664" height="60" as="geometry" />
        </mxCell>
        <mxCell id="L60MXe94DrMWVsOr6QPD-59" value="Is a" style="text;html=1;strokeColor=none;fillColor=none;align=center;verticalAlign=middle;whiteSpace=wrap;rounded=0;" parent="L60MXe94DrMWVsOr6QPD-57" vertex="1">
          <mxGeometry x="11.666666666666666" y="5" width="46.666666666666664" height="20" as="geometry" />
        </mxCell>
        <mxCell id="L60MXe94DrMWVsOr6QPD-60" style="edgeStyle=none;shape=connector;rounded=0;orthogonalLoop=1;jettySize=auto;html=1;exitX=0;exitY=0.5;exitDx=0;exitDy=0;labelBackgroundColor=default;strokeColor=default;align=center;verticalAlign=middle;fontFamily=Helvetica;fontSize=11;fontColor=default;endArrow=none;endFill=0;" parent="1" source="L60MXe94DrMWVsOr6QPD-58" target="Lp1CEwEdFW6QAOaDkrqb-2" edge="1">
          <mxGeometry relative="1" as="geometry" />
        </mxCell>
        <mxCell id="c3Gi8Lmumaz_45QTmew4-2" style="edgeStyle=none;shape=connector;rounded=0;orthogonalLoop=1;jettySize=auto;html=1;exitX=1;exitY=0.5;exitDx=0;exitDy=0;entryX=0.25;entryY=0;entryDx=0;entryDy=0;labelBackgroundColor=default;strokeColor=default;align=center;verticalAlign=middle;fontFamily=Helvetica;fontSize=11;fontColor=default;endArrow=none;endFill=0;" parent="1" source="L60MXe94DrMWVsOr6QPD-62" target="Lp1CEwEdFW6QAOaDkrqb-2" edge="1">
          <mxGeometry relative="1" as="geometry" />
        </mxCell>
        <mxCell id="L60MXe94DrMWVsOr6QPD-62" value="Quantity" style="ellipse;whiteSpace=wrap;html=1;" parent="1" vertex="1">
          <mxGeometry x="1520" y="280" width="90" height="40" as="geometry" />
        </mxCell>
        <mxCell id="L60MXe94DrMWVsOr6QPD-65" style="edgeStyle=none;shape=connector;rounded=0;orthogonalLoop=1;jettySize=auto;html=1;exitX=0.5;exitY=0;exitDx=0;exitDy=0;entryX=0.75;entryY=1;entryDx=0;entryDy=0;labelBackgroundColor=default;strokeColor=default;align=center;verticalAlign=middle;fontFamily=Helvetica;fontSize=11;fontColor=default;endArrow=none;endFill=0;" parent="1" source="L60MXe94DrMWVsOr6QPD-63" target="Lp1CEwEdFW6QAOaDkrqb-7" edge="1">
          <mxGeometry relative="1" as="geometry" />
        </mxCell>
        <mxCell id="L60MXe94DrMWVsOr6QPD-63" value="&lt;font style=&quot;font-size: 10px;&quot;&gt;Discount Offer&lt;/font&gt;" style="ellipse;whiteSpace=wrap;html=1;" parent="1" vertex="1">
          <mxGeometry x="1695" y="630" width="90" height="40" as="geometry" />
        </mxCell>
        <mxCell id="L60MXe94DrMWVsOr6QPD-66" value="&lt;u&gt;Cart ID&lt;/u&gt;" style="ellipse;whiteSpace=wrap;html=1;" parent="1" vertex="1">
          <mxGeometry x="1960" y="270" width="90" height="40" as="geometry" />
        </mxCell>
        <mxCell id="L60MXe94DrMWVsOr6QPD-69" style="edgeStyle=none;shape=connector;rounded=0;orthogonalLoop=1;jettySize=auto;html=1;exitX=0.5;exitY=1;exitDx=0;exitDy=0;entryX=0.25;entryY=0;entryDx=0;entryDy=0;labelBackgroundColor=default;strokeColor=default;align=center;verticalAlign=middle;fontFamily=Helvetica;fontSize=11;fontColor=default;endArrow=none;endFill=0;" parent="1" source="L60MXe94DrMWVsOr6QPD-68" target="Lp1CEwEdFW6QAOaDkrqb-8" edge="1">
          <mxGeometry relative="1" as="geometry" />
        </mxCell>
        <mxCell id="L60MXe94DrMWVsOr6QPD-68" value="Total Price" style="ellipse;whiteSpace=wrap;html=1;" parent="1" vertex="1">
          <mxGeometry x="2010" y="210" width="90" height="40" as="geometry" />
        </mxCell>
        <mxCell id="L60MXe94DrMWVsOr6QPD-71" style="edgeStyle=none;shape=connector;rounded=0;orthogonalLoop=1;jettySize=auto;html=1;exitX=0.5;exitY=1;exitDx=0;exitDy=0;entryX=0.5;entryY=0;entryDx=0;entryDy=0;labelBackgroundColor=default;strokeColor=default;align=center;verticalAlign=middle;fontFamily=Helvetica;fontSize=11;fontColor=default;endArrow=none;endFill=0;" parent="1" source="L60MXe94DrMWVsOr6QPD-70" target="Lp1CEwEdFW6QAOaDkrqb-8" edge="1">
          <mxGeometry relative="1" as="geometry" />
        </mxCell>
        <mxCell id="L60MXe94DrMWVsOr6QPD-70" value="Creation Date" style="ellipse;whiteSpace=wrap;html=1;" parent="1" vertex="1">
          <mxGeometry x="2070" y="265" width="90" height="40" as="geometry" />
        </mxCell>
        <mxCell id="L60MXe94DrMWVsOr6QPD-75" style="edgeStyle=none;shape=connector;rounded=0;orthogonalLoop=1;jettySize=auto;html=1;exitX=0.5;exitY=1;exitDx=0;exitDy=0;entryX=0.75;entryY=0;entryDx=0;entryDy=0;labelBackgroundColor=default;strokeColor=default;align=center;verticalAlign=middle;fontFamily=Helvetica;fontSize=11;fontColor=default;endArrow=none;endFill=0;" parent="1" source="L60MXe94DrMWVsOr6QPD-73" target="Lp1CEwEdFW6QAOaDkrqb-8" edge="1">
          <mxGeometry relative="1" as="geometry" />
        </mxCell>
        <mxCell id="L60MXe94DrMWVsOr6QPD-73" value="&lt;font style=&quot;font-size: 11px;&quot;&gt;Last Updated Date&lt;/font&gt;" style="ellipse;whiteSpace=wrap;html=1;" parent="1" vertex="1">
          <mxGeometry x="2150" y="210" width="90" height="40" as="geometry" />
        </mxCell>
        <mxCell id="L60MXe94DrMWVsOr6QPD-77" style="edgeStyle=none;shape=connector;rounded=0;orthogonalLoop=1;jettySize=auto;html=1;exitX=0.5;exitY=1;exitDx=0;exitDy=0;entryX=1;entryY=0;entryDx=0;entryDy=0;labelBackgroundColor=default;strokeColor=default;align=center;verticalAlign=middle;fontFamily=Helvetica;fontSize=11;fontColor=default;endArrow=none;endFill=0;" parent="1" source="L60MXe94DrMWVsOr6QPD-76" target="Lp1CEwEdFW6QAOaDkrqb-8" edge="1">
          <mxGeometry relative="1" as="geometry" />
        </mxCell>
        <mxCell id="L60MXe94DrMWVsOr6QPD-76" value="Coupon Code" style="ellipse;whiteSpace=wrap;html=1;" parent="1" vertex="1">
          <mxGeometry x="2190" y="270" width="90" height="40" as="geometry" />
        </mxCell>
        <mxCell id="L60MXe94DrMWVsOr6QPD-79" style="edgeStyle=none;shape=connector;rounded=0;orthogonalLoop=1;jettySize=auto;html=1;exitX=0;exitY=0.5;exitDx=0;exitDy=0;entryX=1;entryY=0.5;entryDx=0;entryDy=0;labelBackgroundColor=default;strokeColor=default;align=center;verticalAlign=middle;fontFamily=Helvetica;fontSize=11;fontColor=default;endArrow=none;endFill=0;" parent="1" source="L60MXe94DrMWVsOr6QPD-78" target="Lp1CEwEdFW6QAOaDkrqb-8" edge="1">
          <mxGeometry relative="1" as="geometry" />
        </mxCell>
        <mxCell id="L60MXe94DrMWVsOr6QPD-78" value="Number of Items" style="ellipse;whiteSpace=wrap;html=1;" parent="1" vertex="1">
          <mxGeometry x="2250" y="330" width="90" height="40" as="geometry" />
        </mxCell>
        <mxCell id="L60MXe94DrMWVsOr6QPD-81" style="edgeStyle=none;shape=connector;rounded=0;orthogonalLoop=1;jettySize=auto;html=1;exitX=0.5;exitY=0;exitDx=0;exitDy=0;entryX=0.75;entryY=1;entryDx=0;entryDy=0;labelBackgroundColor=default;strokeColor=default;align=center;verticalAlign=middle;fontFamily=Helvetica;fontSize=11;fontColor=default;endArrow=none;endFill=0;" parent="1" source="L60MXe94DrMWVsOr6QPD-80" target="Lp1CEwEdFW6QAOaDkrqb-9" edge="1">
          <mxGeometry relative="1" as="geometry" />
        </mxCell>
        <mxCell id="L60MXe94DrMWVsOr6QPD-80" value="Date" style="ellipse;whiteSpace=wrap;html=1;" parent="1" vertex="1">
          <mxGeometry x="310" y="550" width="90" height="40" as="geometry" />
        </mxCell>
        <mxCell id="L60MXe94DrMWVsOr6QPD-83" style="edgeStyle=none;shape=connector;rounded=0;orthogonalLoop=1;jettySize=auto;html=1;exitX=0.5;exitY=0;exitDx=0;exitDy=0;entryX=0.5;entryY=1;entryDx=0;entryDy=0;labelBackgroundColor=default;strokeColor=default;align=center;verticalAlign=middle;fontFamily=Helvetica;fontSize=11;fontColor=default;endArrow=none;endFill=0;" parent="1" source="L60MXe94DrMWVsOr6QPD-82" target="L60MXe94DrMWVsOr6QPD-80" edge="1">
          <mxGeometry relative="1" as="geometry" />
        </mxCell>
        <mxCell id="L60MXe94DrMWVsOr6QPD-82" value="Date" style="ellipse;whiteSpace=wrap;html=1;" parent="1" vertex="1">
          <mxGeometry x="250" y="630" width="90" height="40" as="geometry" />
        </mxCell>
        <mxCell id="L60MXe94DrMWVsOr6QPD-85" style="edgeStyle=none;shape=connector;rounded=0;orthogonalLoop=1;jettySize=auto;html=1;exitX=0.5;exitY=0;exitDx=0;exitDy=0;entryX=0.5;entryY=1;entryDx=0;entryDy=0;labelBackgroundColor=default;strokeColor=default;align=center;verticalAlign=middle;fontFamily=Helvetica;fontSize=11;fontColor=default;endArrow=none;endFill=0;" parent="1" source="L60MXe94DrMWVsOr6QPD-84" target="L60MXe94DrMWVsOr6QPD-80" edge="1">
          <mxGeometry relative="1" as="geometry" />
        </mxCell>
        <mxCell id="L60MXe94DrMWVsOr6QPD-84" value="Time" style="ellipse;whiteSpace=wrap;html=1;" parent="1" vertex="1">
          <mxGeometry x="370" y="630" width="90" height="40" as="geometry" />
        </mxCell>
        <mxCell id="L60MXe94DrMWVsOr6QPD-89" style="edgeStyle=none;shape=connector;rounded=0;orthogonalLoop=1;jettySize=auto;html=1;exitX=1;exitY=1;exitDx=0;exitDy=0;labelBackgroundColor=default;strokeColor=default;align=center;verticalAlign=middle;fontFamily=Helvetica;fontSize=11;fontColor=default;endArrow=none;endFill=0;" parent="1" edge="1">
          <mxGeometry relative="1" as="geometry">
            <mxPoint x="449.9999999999998" y="450" as="sourcePoint" />
            <mxPoint x="449.9999999999998" y="450" as="targetPoint" />
          </mxGeometry>
        </mxCell>
        <mxCell id="L60MXe94DrMWVsOr6QPD-94" style="edgeStyle=orthogonalEdgeStyle;shape=connector;rounded=0;orthogonalLoop=1;jettySize=auto;html=1;exitX=0;exitY=0.5;exitDx=0;exitDy=0;entryX=1;entryY=0.25;entryDx=0;entryDy=0;labelBackgroundColor=default;strokeColor=default;align=center;verticalAlign=middle;fontFamily=Helvetica;fontSize=11;fontColor=default;endArrow=none;endFill=0;" parent="1" source="L60MXe94DrMWVsOr6QPD-108" target="Lp1CEwEdFW6QAOaDkrqb-2" edge="1">
          <mxGeometry relative="1" as="geometry">
            <mxPoint x="1820" y="370" as="sourcePoint" />
            <Array as="points">
              <mxPoint x="1810" y="370" />
              <mxPoint x="1810" y="360" />
            </Array>
          </mxGeometry>
        </mxCell>
        <mxCell id="L60MXe94DrMWVsOr6QPD-97" value="N" style="edgeLabel;html=1;align=center;verticalAlign=middle;resizable=0;points=[];fontSize=14;fontFamily=Helvetica;fontColor=default;labelBackgroundColor=none;" parent="L60MXe94DrMWVsOr6QPD-94" vertex="1" connectable="0">
          <mxGeometry x="-0.02" y="2" relative="1" as="geometry">
            <mxPoint x="-31" y="-11" as="offset" />
          </mxGeometry>
        </mxCell>
        <mxCell id="L60MXe94DrMWVsOr6QPD-95" style="edgeStyle=orthogonalEdgeStyle;shape=link;rounded=0;orthogonalLoop=1;jettySize=auto;html=1;exitX=1;exitY=0.5;exitDx=0;exitDy=0;entryX=0;entryY=0.75;entryDx=0;entryDy=0;labelBackgroundColor=default;strokeColor=default;align=center;verticalAlign=middle;fontFamily=Helvetica;fontSize=11;fontColor=default;endArrow=none;endFill=0;" parent="1" source="L60MXe94DrMWVsOr6QPD-108" target="Lp1CEwEdFW6QAOaDkrqb-8" edge="1">
          <mxGeometry relative="1" as="geometry">
            <mxPoint x="1900" y="370" as="sourcePoint" />
          </mxGeometry>
        </mxCell>
        <mxCell id="L60MXe94DrMWVsOr6QPD-96" value="&lt;font style=&quot;font-size: 14px;&quot;&gt;M&lt;/font&gt;" style="edgeLabel;html=1;align=center;verticalAlign=middle;resizable=0;points=[];fontSize=14;fontFamily=Helvetica;fontColor=default;labelBackgroundColor=none;" parent="L60MXe94DrMWVsOr6QPD-95" vertex="1" connectable="0">
          <mxGeometry x="-0.0813" y="4" relative="1" as="geometry">
            <mxPoint x="66" y="24" as="offset" />
          </mxGeometry>
        </mxCell>
        <mxCell id="L60MXe94DrMWVsOr6QPD-99" style="edgeStyle=orthogonalEdgeStyle;shape=connector;rounded=0;orthogonalLoop=1;jettySize=auto;html=1;exitX=0;exitY=0.5;exitDx=0;exitDy=0;entryX=1;entryY=0.75;entryDx=0;entryDy=0;labelBackgroundColor=default;strokeColor=default;align=center;verticalAlign=middle;fontFamily=Helvetica;fontSize=11;fontColor=default;endArrow=none;endFill=0;" parent="1" source="L60MXe94DrMWVsOr6QPD-104" target="Lp1CEwEdFW6QAOaDkrqb-1" edge="1">
          <mxGeometry relative="1" as="geometry">
            <mxPoint x="850" y="270" as="sourcePoint" />
            <Array as="points">
              <mxPoint x="850" y="270" />
              <mxPoint x="850" y="280" />
            </Array>
          </mxGeometry>
        </mxCell>
        <mxCell id="L60MXe94DrMWVsOr6QPD-102" value="&lt;font style=&quot;font-size: 14px;&quot;&gt;1&lt;/font&gt;" style="edgeLabel;html=1;align=center;verticalAlign=middle;resizable=0;points=[];fontSize=11;fontFamily=Helvetica;fontColor=default;labelBackgroundColor=none;" parent="L60MXe94DrMWVsOr6QPD-99" vertex="1" connectable="0">
          <mxGeometry x="0.3881" y="1" relative="1" as="geometry">
            <mxPoint x="-29" y="-8" as="offset" />
          </mxGeometry>
        </mxCell>
        <mxCell id="L60MXe94DrMWVsOr6QPD-100" style="edgeStyle=none;shape=link;rounded=0;orthogonalLoop=1;jettySize=auto;html=1;exitX=1;exitY=0.5;exitDx=0;exitDy=0;entryX=0;entryY=0.5;entryDx=0;entryDy=0;labelBackgroundColor=default;strokeColor=default;align=center;verticalAlign=middle;fontFamily=Helvetica;fontSize=11;fontColor=default;endArrow=none;endFill=0;" parent="1" source="L60MXe94DrMWVsOr6QPD-104" target="Lp1CEwEdFW6QAOaDkrqb-5" edge="1">
          <mxGeometry relative="1" as="geometry">
            <mxPoint x="930" y="270" as="sourcePoint" />
          </mxGeometry>
        </mxCell>
        <mxCell id="L60MXe94DrMWVsOr6QPD-101" value="&lt;font style=&quot;font-size: 14px;&quot;&gt;M&lt;/font&gt;" style="edgeLabel;html=1;align=center;verticalAlign=middle;resizable=0;points=[];fontSize=11;fontFamily=Helvetica;fontColor=default;labelBackgroundColor=none;" parent="L60MXe94DrMWVsOr6QPD-100" vertex="1" connectable="0">
          <mxGeometry x="0.5568" relative="1" as="geometry">
            <mxPoint x="13" y="-10" as="offset" />
          </mxGeometry>
        </mxCell>
        <mxCell id="L60MXe94DrMWVsOr6QPD-109" style="edgeStyle=orthogonalEdgeStyle;shape=connector;rounded=0;orthogonalLoop=1;jettySize=auto;html=1;exitX=0;exitY=0.5;exitDx=0;exitDy=0;entryX=1;entryY=1;entryDx=0;entryDy=0;labelBackgroundColor=default;strokeColor=default;align=center;verticalAlign=middle;fontFamily=Helvetica;fontSize=11;fontColor=default;endArrow=none;endFill=0;" parent="1" source="L60MXe94DrMWVsOr6QPD-103" target="Lp1CEwEdFW6QAOaDkrqb-1" edge="1">
          <mxGeometry relative="1" as="geometry">
            <Array as="points">
              <mxPoint x="770" y="340" />
              <mxPoint x="770" y="290" />
            </Array>
          </mxGeometry>
        </mxCell>
        <mxCell id="L60MXe94DrMWVsOr6QPD-111" value="&lt;font style=&quot;font-size: 14px;&quot;&gt;1&lt;/font&gt;" style="edgeLabel;html=1;align=center;verticalAlign=middle;resizable=0;points=[];fontSize=11;fontFamily=Helvetica;fontColor=default;labelBackgroundColor=none;" parent="L60MXe94DrMWVsOr6QPD-109" vertex="1" connectable="0">
          <mxGeometry x="0.4244" y="1" relative="1" as="geometry">
            <mxPoint x="-29" y="-2" as="offset" />
          </mxGeometry>
        </mxCell>
        <mxCell id="L60MXe94DrMWVsOr6QPD-110" style="edgeStyle=orthogonalEdgeStyle;shape=link;rounded=0;orthogonalLoop=1;jettySize=auto;html=1;exitX=1;exitY=0.5;exitDx=0;exitDy=0;entryX=0;entryY=0.25;entryDx=0;entryDy=0;labelBackgroundColor=default;strokeColor=default;align=center;verticalAlign=middle;fontFamily=Helvetica;fontSize=11;fontColor=default;endArrow=none;endFill=0;" parent="1" source="L60MXe94DrMWVsOr6QPD-103" target="Lp1CEwEdFW6QAOaDkrqb-4" edge="1">
          <mxGeometry relative="1" as="geometry" />
        </mxCell>
        <mxCell id="L60MXe94DrMWVsOr6QPD-112" value="&lt;font style=&quot;font-size: 14px;&quot;&gt;M&lt;/font&gt;" style="edgeLabel;html=1;align=center;verticalAlign=middle;resizable=0;points=[];fontSize=11;fontFamily=Helvetica;fontColor=default;labelBackgroundColor=none;" parent="L60MXe94DrMWVsOr6QPD-110" vertex="1" connectable="0">
          <mxGeometry x="0.5462" y="-2" relative="1" as="geometry">
            <mxPoint x="42" y="-12" as="offset" />
          </mxGeometry>
        </mxCell>
        <mxCell id="L60MXe94DrMWVsOr6QPD-103" value="&lt;font style=&quot;font-size: 15px;&quot;&gt;Make&lt;/font&gt;" style="rhombus;whiteSpace=wrap;html=1;fontFamily=Helvetica;fontSize=11;fontColor=default;" parent="1" vertex="1">
          <mxGeometry x="860" y="310" width="60" height="60" as="geometry" />
        </mxCell>
        <mxCell id="_Q0jS4deV_WJqcKFT8aQ-18" style="shape=connector;rounded=0;orthogonalLoop=1;jettySize=auto;html=1;exitX=0.5;exitY=0;exitDx=0;exitDy=0;entryX=0.5;entryY=1;entryDx=0;entryDy=0;labelBackgroundColor=default;strokeColor=default;align=center;verticalAlign=middle;fontFamily=Helvetica;fontSize=11;fontColor=default;endArrow=none;endFill=0;" parent="1" source="L60MXe94DrMWVsOr6QPD-104" target="_Q0jS4deV_WJqcKFT8aQ-10" edge="1">
          <mxGeometry relative="1" as="geometry" />
        </mxCell>
        <mxCell id="L60MXe94DrMWVsOr6QPD-104" value="&lt;font style=&quot;font-size: 15px;&quot;&gt;Make&lt;/font&gt;" style="rhombus;whiteSpace=wrap;html=1;fontFamily=Helvetica;fontSize=11;fontColor=default;" parent="1" vertex="1">
          <mxGeometry x="860" y="240" width="60" height="60" as="geometry" />
        </mxCell>
        <mxCell id="L60MXe94DrMWVsOr6QPD-106" value="View" style="rhombus;whiteSpace=wrap;html=1;fontFamily=Helvetica;fontSize=11;fontColor=default;" parent="1" vertex="1">
          <mxGeometry x="400" y="400" width="60" height="60" as="geometry" />
        </mxCell>
        <mxCell id="L60MXe94DrMWVsOr6QPD-108" value="&lt;font style=&quot;font-size: 17px;&quot;&gt;In&lt;/font&gt;" style="rhombus;whiteSpace=wrap;html=1;fontFamily=Helvetica;fontSize=11;fontColor=default;" parent="1" vertex="1">
          <mxGeometry x="1830" y="340" width="60" height="60" as="geometry" />
        </mxCell>
        <mxCell id="L60MXe94DrMWVsOr6QPD-114" style="edgeStyle=orthogonalEdgeStyle;shape=connector;rounded=0;orthogonalLoop=1;jettySize=auto;html=1;exitX=0;exitY=0.5;exitDx=0;exitDy=0;entryX=1;entryY=0.5;entryDx=0;entryDy=0;labelBackgroundColor=default;strokeColor=default;align=center;verticalAlign=middle;fontFamily=Helvetica;fontSize=11;fontColor=default;endArrow=none;endFill=0;" parent="1" source="L60MXe94DrMWVsOr6QPD-113" target="Lp1CEwEdFW6QAOaDkrqb-4" edge="1">
          <mxGeometry relative="1" as="geometry" />
        </mxCell>
        <mxCell id="L60MXe94DrMWVsOr6QPD-117" value="&lt;font style=&quot;font-size: 14px;&quot;&gt;N&lt;/font&gt;" style="edgeLabel;html=1;align=center;verticalAlign=middle;resizable=0;points=[];fontSize=11;fontFamily=Helvetica;fontColor=default;labelBackgroundColor=none;" parent="L60MXe94DrMWVsOr6QPD-114" vertex="1" connectable="0">
          <mxGeometry x="0.2754" y="-1" relative="1" as="geometry">
            <mxPoint x="-36" y="-6" as="offset" />
          </mxGeometry>
        </mxCell>
        <mxCell id="L60MXe94DrMWVsOr6QPD-115" style="edgeStyle=orthogonalEdgeStyle;shape=connector;rounded=0;orthogonalLoop=1;jettySize=auto;html=1;exitX=1;exitY=0.5;exitDx=0;exitDy=0;entryX=0;entryY=0.5;entryDx=0;entryDy=0;labelBackgroundColor=default;strokeColor=default;align=center;verticalAlign=middle;fontFamily=Helvetica;fontSize=11;fontColor=default;endArrow=none;endFill=0;" parent="1" source="L60MXe94DrMWVsOr6QPD-113" target="Lp1CEwEdFW6QAOaDkrqb-2" edge="1">
          <mxGeometry relative="1" as="geometry">
            <mxPoint x="1495.0000000000005" y="420" as="sourcePoint" />
            <Array as="points">
              <mxPoint x="1450" y="420" />
              <mxPoint x="1450" y="370" />
            </Array>
          </mxGeometry>
        </mxCell>
        <mxCell id="L60MXe94DrMWVsOr6QPD-116" value="M" style="edgeLabel;html=1;align=center;verticalAlign=middle;resizable=0;points=[];fontSize=14;fontFamily=Helvetica;fontColor=default;labelBackgroundColor=none;" parent="L60MXe94DrMWVsOr6QPD-115" vertex="1" connectable="0">
          <mxGeometry x="0.8677" y="-3" relative="1" as="geometry">
            <mxPoint x="2" y="-9" as="offset" />
          </mxGeometry>
        </mxCell>
        <mxCell id="L60MXe94DrMWVsOr6QPD-113" value="&lt;span style=&quot;font-size: 15px;&quot;&gt;Have&lt;/span&gt;" style="rhombus;whiteSpace=wrap;html=1;fontFamily=Helvetica;fontSize=11;fontColor=default;" parent="1" vertex="1">
          <mxGeometry x="1340" y="390" width="60" height="60" as="geometry" />
        </mxCell>
        <mxCell id="L60MXe94DrMWVsOr6QPD-120" style="edgeStyle=orthogonalEdgeStyle;shape=link;rounded=0;orthogonalLoop=1;jettySize=auto;html=1;exitX=1;exitY=0.5;exitDx=0;exitDy=0;entryX=0;entryY=0.75;entryDx=0;entryDy=0;labelBackgroundColor=default;strokeColor=default;align=center;verticalAlign=middle;fontFamily=Helvetica;fontSize=11;fontColor=default;endArrow=none;endFill=0;" parent="1" source="L60MXe94DrMWVsOr6QPD-118" target="Lp1CEwEdFW6QAOaDkrqb-2" edge="1">
          <mxGeometry relative="1" as="geometry">
            <Array as="points">
              <mxPoint x="1490" y="610" />
              <mxPoint x="1490" y="380" />
            </Array>
          </mxGeometry>
        </mxCell>
        <mxCell id="L60MXe94DrMWVsOr6QPD-123" value="M" style="edgeLabel;html=1;align=center;verticalAlign=middle;resizable=0;points=[];fontSize=14;fontFamily=Helvetica;fontColor=default;labelBackgroundColor=none;" parent="L60MXe94DrMWVsOr6QPD-120" vertex="1" connectable="0">
          <mxGeometry x="0.708" y="-1" relative="1" as="geometry">
            <mxPoint x="82" y="9" as="offset" />
          </mxGeometry>
        </mxCell>
        <mxCell id="L60MXe94DrMWVsOr6QPD-118" value="&lt;font style=&quot;font-size: 12px;&quot;&gt;Belongs&lt;/font&gt;" style="rhombus;whiteSpace=wrap;html=1;fontFamily=Helvetica;fontSize=11;fontColor=default;" parent="1" vertex="1">
          <mxGeometry x="1145" y="580" width="60" height="60" as="geometry" />
        </mxCell>
        <mxCell id="L60MXe94DrMWVsOr6QPD-125" style="edgeStyle=orthogonalEdgeStyle;shape=connector;rounded=0;orthogonalLoop=1;jettySize=auto;html=1;exitX=0;exitY=0.5;exitDx=0;exitDy=0;entryX=1;entryY=0.25;entryDx=0;entryDy=0;labelBackgroundColor=default;strokeColor=default;align=center;verticalAlign=middle;fontFamily=Helvetica;fontSize=11;fontColor=default;endArrow=none;endFill=0;" parent="1" source="L60MXe94DrMWVsOr6QPD-124" target="Lp1CEwEdFW6QAOaDkrqb-3" edge="1">
          <mxGeometry relative="1" as="geometry" />
        </mxCell>
        <mxCell id="L60MXe94DrMWVsOr6QPD-127" value="0..1" style="edgeLabel;html=1;align=center;verticalAlign=middle;resizable=0;points=[];fontSize=14;fontFamily=Helvetica;fontColor=default;labelBackgroundColor=none;" parent="L60MXe94DrMWVsOr6QPD-125" vertex="1" connectable="0">
          <mxGeometry x="0.6854" y="-3" relative="1" as="geometry">
            <mxPoint x="-6" y="-4" as="offset" />
          </mxGeometry>
        </mxCell>
        <mxCell id="L60MXe94DrMWVsOr6QPD-126" style="edgeStyle=orthogonalEdgeStyle;shape=link;rounded=0;orthogonalLoop=1;jettySize=auto;html=1;exitX=1;exitY=0.5;exitDx=0;exitDy=0;labelBackgroundColor=default;strokeColor=default;align=center;verticalAlign=middle;fontFamily=Helvetica;fontSize=11;fontColor=default;endArrow=none;endFill=0;entryX=0;entryY=0.75;entryDx=0;entryDy=0;" parent="1" source="L60MXe94DrMWVsOr6QPD-124" target="Lp1CEwEdFW6QAOaDkrqb-4" edge="1">
          <mxGeometry relative="1" as="geometry">
            <mxPoint x="990" y="460" as="targetPoint" />
            <Array as="points">
              <mxPoint x="960" y="420" />
              <mxPoint x="960" y="430" />
            </Array>
          </mxGeometry>
        </mxCell>
        <mxCell id="L60MXe94DrMWVsOr6QPD-129" value="M" style="edgeLabel;html=1;align=center;verticalAlign=middle;resizable=0;points=[];fontSize=14;fontFamily=Helvetica;fontColor=default;labelBackgroundColor=none;" parent="L60MXe94DrMWVsOr6QPD-126" vertex="1" connectable="0">
          <mxGeometry x="0.7308" relative="1" as="geometry">
            <mxPoint x="15" y="10" as="offset" />
          </mxGeometry>
        </mxCell>
        <mxCell id="L60MXe94DrMWVsOr6QPD-124" value="&lt;font style=&quot;font-size: 15px;&quot;&gt;See&lt;/font&gt;" style="rhombus;whiteSpace=wrap;html=1;fontFamily=Helvetica;fontSize=11;fontColor=default;" parent="1" vertex="1">
          <mxGeometry x="860" y="390" width="60" height="60" as="geometry" />
        </mxCell>
        <mxCell id="L60MXe94DrMWVsOr6QPD-132" style="edgeStyle=orthogonalEdgeStyle;shape=connector;rounded=0;orthogonalLoop=1;jettySize=auto;html=1;exitX=0.5;exitY=0;exitDx=0;exitDy=0;labelBackgroundColor=default;strokeColor=default;align=center;verticalAlign=middle;fontFamily=Helvetica;fontSize=11;fontColor=default;endArrow=none;endFill=0;entryX=0;entryY=0.75;entryDx=0;entryDy=0;" parent="1" source="L60MXe94DrMWVsOr6QPD-131" target="Lp1CEwEdFW6QAOaDkrqb-1" edge="1">
          <mxGeometry relative="1" as="geometry">
            <mxPoint x="580" y="300" as="targetPoint" />
            <Array as="points">
              <mxPoint x="540" y="310" />
              <mxPoint x="581" y="310" />
              <mxPoint x="581" y="280" />
            </Array>
          </mxGeometry>
        </mxCell>
        <mxCell id="L60MXe94DrMWVsOr6QPD-134" value="M" style="edgeLabel;html=1;align=center;verticalAlign=middle;resizable=0;points=[];fontSize=14;fontFamily=Helvetica;fontColor=default;labelBackgroundColor=none;" parent="L60MXe94DrMWVsOr6QPD-132" vertex="1" connectable="0">
          <mxGeometry x="0.0717" y="-2" relative="1" as="geometry">
            <mxPoint x="27" y="-11" as="offset" />
          </mxGeometry>
        </mxCell>
        <mxCell id="L60MXe94DrMWVsOr6QPD-133" style="edgeStyle=orthogonalEdgeStyle;shape=link;rounded=0;orthogonalLoop=1;jettySize=auto;html=1;exitX=0.5;exitY=1;exitDx=0;exitDy=0;entryX=0;entryY=0.5;entryDx=0;entryDy=0;labelBackgroundColor=default;strokeColor=default;align=center;verticalAlign=middle;fontFamily=Helvetica;fontSize=11;fontColor=default;endArrow=none;endFill=0;jumpStyle=arc;" parent="1" source="L60MXe94DrMWVsOr6QPD-131" target="Lp1CEwEdFW6QAOaDkrqb-7" edge="1">
          <mxGeometry relative="1" as="geometry">
            <mxPoint x="540" y="410.0000000000002" as="sourcePoint" />
            <mxPoint x="1540" y="570" as="targetPoint" />
            <Array as="points">
              <mxPoint x="540" y="490" />
              <mxPoint x="490" y="490" />
              <mxPoint x="490" y="660" />
              <mxPoint x="1510" y="660" />
              <mxPoint x="1510" y="580" />
            </Array>
          </mxGeometry>
        </mxCell>
        <mxCell id="L60MXe94DrMWVsOr6QPD-135" value="M" style="edgeLabel;html=1;align=center;verticalAlign=middle;resizable=0;points=[];fontSize=14;fontFamily=Helvetica;fontColor=default;labelBackgroundColor=none;" parent="L60MXe94DrMWVsOr6QPD-133" vertex="1" connectable="0">
          <mxGeometry x="0.9784" relative="1" as="geometry">
            <mxPoint x="10" y="-10" as="offset" />
          </mxGeometry>
        </mxCell>
        <mxCell id="L60MXe94DrMWVsOr6QPD-131" value="&lt;font style=&quot;font-size: 12px;&quot;&gt;Have&lt;/font&gt;" style="rhombus;whiteSpace=wrap;html=1;fontFamily=Helvetica;fontSize=11;fontColor=default;" parent="1" vertex="1">
          <mxGeometry x="510" y="330" width="60" height="60" as="geometry" />
        </mxCell>
        <mxCell id="L60MXe94DrMWVsOr6QPD-90" style="edgeStyle=none;shape=connector;rounded=0;orthogonalLoop=1;jettySize=auto;html=1;exitX=0;exitY=0.5;exitDx=0;exitDy=0;entryX=1;entryY=0.5;entryDx=0;entryDy=0;labelBackgroundColor=default;strokeColor=default;align=center;verticalAlign=middle;fontFamily=Helvetica;fontSize=11;fontColor=default;endArrow=none;endFill=0;jumpStyle=arc;jumpSize=12;" parent="1" source="Lp1CEwEdFW6QAOaDkrqb-3" target="L60MXe94DrMWVsOr6QPD-106" edge="1">
          <mxGeometry relative="1" as="geometry">
            <mxPoint x="469.9999999999998" y="430" as="targetPoint" />
          </mxGeometry>
        </mxCell>
        <mxCell id="L60MXe94DrMWVsOr6QPD-92" value="&lt;font style=&quot;font-size: 14px;&quot;&gt;1&lt;/font&gt;" style="edgeLabel;html=1;align=center;verticalAlign=middle;resizable=0;points=[];fontSize=11;fontFamily=Helvetica;fontColor=default;labelBackgroundColor=none;" parent="L60MXe94DrMWVsOr6QPD-90" vertex="1" connectable="0">
          <mxGeometry x="-0.7935" y="-1" relative="1" as="geometry">
            <mxPoint x="5" y="-7" as="offset" />
          </mxGeometry>
        </mxCell>
        <mxCell id="L60MXe94DrMWVsOr6QPD-138" style="edgeStyle=orthogonalEdgeStyle;shape=connector;rounded=0;orthogonalLoop=1;jettySize=auto;html=1;exitX=1;exitY=0.5;exitDx=0;exitDy=0;labelBackgroundColor=default;strokeColor=default;align=center;verticalAlign=middle;fontFamily=Helvetica;fontSize=11;fontColor=default;endArrow=none;endFill=0;entryX=1;entryY=0.5;entryDx=0;entryDy=0;jumpStyle=arc;jumpSize=9;" parent="1" source="L60MXe94DrMWVsOr6QPD-136" target="Lp1CEwEdFW6QAOaDkrqb-3" edge="1">
          <mxGeometry relative="1" as="geometry">
            <mxPoint x="1420" y="560" as="targetPoint" />
            <Array as="points">
              <mxPoint x="1430" y="270" />
              <mxPoint x="1430" y="560" />
              <mxPoint x="910" y="560" />
              <mxPoint x="910" y="480" />
              <mxPoint x="850" y="480" />
              <mxPoint x="850" y="430" />
            </Array>
          </mxGeometry>
        </mxCell>
        <mxCell id="L60MXe94DrMWVsOr6QPD-139" value="0..1" style="edgeLabel;html=1;align=center;verticalAlign=middle;resizable=0;points=[];fontSize=14;fontFamily=Helvetica;fontColor=default;labelBackgroundColor=none;" parent="L60MXe94DrMWVsOr6QPD-138" vertex="1" connectable="0">
          <mxGeometry x="0.6565" relative="1" as="geometry">
            <mxPoint x="-144" y="-40" as="offset" />
          </mxGeometry>
        </mxCell>
        <mxCell id="L60MXe94DrMWVsOr6QPD-136" value="&lt;span style=&quot;font-size: 15px;&quot;&gt;Have&lt;/span&gt;" style="rhombus;whiteSpace=wrap;html=1;fontFamily=Helvetica;fontSize=11;fontColor=default;" parent="1" vertex="1">
          <mxGeometry x="1280" y="240" width="60" height="60" as="geometry" />
        </mxCell>
        <mxCell id="L60MXe94DrMWVsOr6QPD-142" style="edgeStyle=orthogonalEdgeStyle;shape=connector;rounded=0;orthogonalLoop=1;jettySize=auto;html=1;exitX=1;exitY=0.5;exitDx=0;exitDy=0;entryX=0;entryY=0;entryDx=0;entryDy=0;labelBackgroundColor=default;strokeColor=default;align=center;verticalAlign=middle;fontFamily=Helvetica;fontSize=11;fontColor=default;endArrow=none;endFill=0;" parent="1" source="L60MXe94DrMWVsOr6QPD-141" target="Lp1CEwEdFW6QAOaDkrqb-2" edge="1">
          <mxGeometry relative="1" as="geometry">
            <Array as="points">
              <mxPoint x="1510" y="195" />
              <mxPoint x="1510" y="350" />
            </Array>
          </mxGeometry>
        </mxCell>
        <mxCell id="L60MXe94DrMWVsOr6QPD-145" value="0..1" style="edgeLabel;html=1;align=center;verticalAlign=middle;resizable=0;points=[];fontSize=14;fontFamily=Helvetica;fontColor=default;labelBackgroundColor=none;" parent="L60MXe94DrMWVsOr6QPD-142" vertex="1" connectable="0">
          <mxGeometry x="0.8595" y="2" relative="1" as="geometry">
            <mxPoint x="7" y="-8" as="offset" />
          </mxGeometry>
        </mxCell>
        <mxCell id="L60MXe94DrMWVsOr6QPD-143" style="edgeStyle=orthogonalEdgeStyle;shape=link;rounded=0;orthogonalLoop=1;jettySize=auto;html=1;exitX=0;exitY=0.5;exitDx=0;exitDy=0;entryX=1;entryY=0.5;entryDx=0;entryDy=0;labelBackgroundColor=default;strokeColor=default;align=center;verticalAlign=middle;fontFamily=Helvetica;fontSize=11;fontColor=default;endArrow=none;endFill=0;" parent="1" source="L60MXe94DrMWVsOr6QPD-141" target="Lp1CEwEdFW6QAOaDkrqb-5" edge="1">
          <mxGeometry relative="1" as="geometry">
            <Array as="points">
              <mxPoint x="1260" y="195" />
              <mxPoint x="1260" y="270" />
            </Array>
          </mxGeometry>
        </mxCell>
        <mxCell id="L60MXe94DrMWVsOr6QPD-144" value="M" style="edgeLabel;html=1;align=center;verticalAlign=middle;resizable=0;points=[];fontSize=14;fontFamily=Helvetica;fontColor=default;labelBackgroundColor=none;" parent="L60MXe94DrMWVsOr6QPD-143" vertex="1" connectable="0">
          <mxGeometry x="0.134" y="-5" relative="1" as="geometry">
            <mxPoint x="-50" y="-3" as="offset" />
          </mxGeometry>
        </mxCell>
        <mxCell id="L60MXe94DrMWVsOr6QPD-141" value="&lt;span style=&quot;font-size: 15px;&quot;&gt;Have&lt;/span&gt;" style="rhombus;whiteSpace=wrap;html=1;fontFamily=Helvetica;fontSize=11;fontColor=default;" parent="1" vertex="1">
          <mxGeometry x="1280" y="165" width="60" height="60" as="geometry" />
        </mxCell>
        <mxCell id="L60MXe94DrMWVsOr6QPD-150" style="edgeStyle=orthogonalEdgeStyle;shape=link;rounded=0;orthogonalLoop=1;jettySize=auto;html=1;exitX=1;exitY=0.5;exitDx=0;exitDy=0;entryX=0;entryY=0.25;entryDx=0;entryDy=0;labelBackgroundColor=default;strokeColor=default;align=center;verticalAlign=middle;fontFamily=Helvetica;fontSize=11;fontColor=default;endArrow=none;endFill=0;" parent="1" source="L60MXe94DrMWVsOr6QPD-147" target="Lp1CEwEdFW6QAOaDkrqb-8" edge="1">
          <mxGeometry relative="1" as="geometry">
            <Array as="points">
              <mxPoint x="1900" y="150" />
              <mxPoint x="1900" y="310" />
              <mxPoint x="1960" y="310" />
              <mxPoint x="1960" y="360" />
            </Array>
          </mxGeometry>
        </mxCell>
        <mxCell id="L60MXe94DrMWVsOr6QPD-151" value="1" style="edgeLabel;html=1;align=center;verticalAlign=middle;resizable=0;points=[];fontSize=14;fontFamily=Helvetica;fontColor=default;labelBackgroundColor=none;" parent="L60MXe94DrMWVsOr6QPD-150" vertex="1" connectable="0">
          <mxGeometry x="0.526" y="-1" relative="1" as="geometry">
            <mxPoint x="91" y="39" as="offset" />
          </mxGeometry>
        </mxCell>
        <mxCell id="L60MXe94DrMWVsOr6QPD-147" value="&lt;span style=&quot;font-size: 15px;&quot;&gt;Have&lt;/span&gt;" style="rhombus;whiteSpace=wrap;html=1;fontFamily=Helvetica;fontSize=11;fontColor=default;" parent="1" vertex="1">
          <mxGeometry x="1510" y="120" width="60" height="60" as="geometry" />
        </mxCell>
        <mxCell id="_Q0jS4deV_WJqcKFT8aQ-5" style="edgeStyle=none;shape=connector;rounded=0;orthogonalLoop=1;jettySize=auto;html=1;exitX=0.5;exitY=0;exitDx=0;exitDy=0;entryX=0;entryY=1;entryDx=0;entryDy=0;labelBackgroundColor=default;strokeColor=default;align=center;verticalAlign=middle;fontFamily=Helvetica;fontSize=11;fontColor=default;endArrow=none;endFill=0;" parent="1" source="_Q0jS4deV_WJqcKFT8aQ-6" target="L60MXe94DrMWVsOr6QPD-103" edge="1">
          <mxGeometry relative="1" as="geometry">
            <mxPoint x="815" y="310" as="targetPoint" />
          </mxGeometry>
        </mxCell>
        <mxCell id="_Q0jS4deV_WJqcKFT8aQ-6" value="Date" style="ellipse;whiteSpace=wrap;html=1;" parent="1" vertex="1">
          <mxGeometry x="760" y="360" width="90" height="40" as="geometry" />
        </mxCell>
        <mxCell id="_Q0jS4deV_WJqcKFT8aQ-7" style="edgeStyle=none;shape=connector;rounded=0;orthogonalLoop=1;jettySize=auto;html=1;exitX=0;exitY=0.5;exitDx=0;exitDy=0;entryX=1;entryY=0;entryDx=0;entryDy=0;labelBackgroundColor=default;strokeColor=default;align=center;verticalAlign=middle;fontFamily=Helvetica;fontSize=11;fontColor=default;endArrow=none;endFill=0;" parent="1" source="_Q0jS4deV_WJqcKFT8aQ-8" target="L60MXe94DrMWVsOr6QPD-103" edge="1">
          <mxGeometry relative="1" as="geometry">
            <mxPoint x="815" y="310" as="targetPoint" />
          </mxGeometry>
        </mxCell>
        <mxCell id="_Q0jS4deV_WJqcKFT8aQ-8" value="Time" style="ellipse;whiteSpace=wrap;html=1;" parent="1" vertex="1">
          <mxGeometry x="950" y="290" width="90" height="40" as="geometry" />
        </mxCell>
        <mxCell id="_Q0jS4deV_WJqcKFT8aQ-10" value="Date" style="ellipse;whiteSpace=wrap;html=1;" parent="1" vertex="1">
          <mxGeometry x="850" y="145" width="90" height="40" as="geometry" />
        </mxCell>
        <mxCell id="_Q0jS4deV_WJqcKFT8aQ-17" style="shape=connector;rounded=0;orthogonalLoop=1;jettySize=auto;html=1;exitX=0;exitY=1;exitDx=0;exitDy=0;entryX=1;entryY=0;entryDx=0;entryDy=0;labelBackgroundColor=default;strokeColor=default;align=center;verticalAlign=middle;fontFamily=Helvetica;fontSize=11;fontColor=default;endArrow=none;endFill=0;" parent="1" source="_Q0jS4deV_WJqcKFT8aQ-12" target="L60MXe94DrMWVsOr6QPD-104" edge="1">
          <mxGeometry relative="1" as="geometry" />
        </mxCell>
        <mxCell id="_Q0jS4deV_WJqcKFT8aQ-12" value="Time" style="ellipse;whiteSpace=wrap;html=1;" parent="1" vertex="1">
          <mxGeometry x="900" y="205" width="90" height="40" as="geometry" />
        </mxCell>
        <mxCell id="_Q0jS4deV_WJqcKFT8aQ-15" value="Rating" style="ellipse;whiteSpace=wrap;html=1;" parent="1" vertex="1">
          <mxGeometry x="1155" y="200" width="90" height="40" as="geometry" />
        </mxCell>
        <mxCell id="EQjUbwfXLJsyXit4vQer-1" value="Phone Number" style="ellipse;whiteSpace=wrap;html=1;" parent="1" vertex="1">
          <mxGeometry x="760" y="80" width="90" height="40" as="geometry" />
        </mxCell>
        <mxCell id="L4EmFqghOlZ5tZnvImZ_-1" value="Image" style="rounded=0;whiteSpace=wrap;html=1;" vertex="1" parent="1">
          <mxGeometry x="2040" y="480" width="110" height="40" as="geometry" />
        </mxCell>
        <mxCell id="L4EmFqghOlZ5tZnvImZ_-14" style="edgeStyle=none;shape=connector;rounded=0;orthogonalLoop=1;jettySize=auto;html=1;exitX=0.5;exitY=0;exitDx=0;exitDy=0;entryX=0.5;entryY=1;entryDx=0;entryDy=0;labelBackgroundColor=default;strokeColor=default;align=center;verticalAlign=middle;fontFamily=Helvetica;fontSize=11;fontColor=default;endArrow=none;endFill=0;" edge="1" parent="1" source="L4EmFqghOlZ5tZnvImZ_-2" target="L4EmFqghOlZ5tZnvImZ_-1">
          <mxGeometry relative="1" as="geometry" />
        </mxCell>
        <mxCell id="L4EmFqghOlZ5tZnvImZ_-2" value="Image ID" style="ellipse;whiteSpace=wrap;html=1;" vertex="1" parent="1">
          <mxGeometry x="1950" y="560" width="90" height="40" as="geometry" />
        </mxCell>
        <mxCell id="L4EmFqghOlZ5tZnvImZ_-13" style="edgeStyle=none;shape=connector;rounded=0;orthogonalLoop=1;jettySize=auto;html=1;exitX=0.5;exitY=0;exitDx=0;exitDy=0;labelBackgroundColor=default;strokeColor=default;align=center;verticalAlign=middle;fontFamily=Helvetica;fontSize=11;fontColor=default;endArrow=none;endFill=0;entryX=0.5;entryY=1;entryDx=0;entryDy=0;" edge="1" parent="1" source="L4EmFqghOlZ5tZnvImZ_-3" target="L4EmFqghOlZ5tZnvImZ_-1">
          <mxGeometry relative="1" as="geometry">
            <mxPoint x="2090" y="520" as="targetPoint" />
          </mxGeometry>
        </mxCell>
        <mxCell id="L4EmFqghOlZ5tZnvImZ_-3" value="&lt;span style=&quot;font-size: 11px;&quot;&gt;Name&lt;/span&gt;" style="ellipse;whiteSpace=wrap;html=1;" vertex="1" parent="1">
          <mxGeometry x="2000" y="610" width="90" height="40" as="geometry" />
        </mxCell>
        <mxCell id="L4EmFqghOlZ5tZnvImZ_-12" style="edgeStyle=none;shape=connector;rounded=0;orthogonalLoop=1;jettySize=auto;html=1;exitX=0.5;exitY=0;exitDx=0;exitDy=0;entryX=0.5;entryY=1;entryDx=0;entryDy=0;labelBackgroundColor=default;strokeColor=default;align=center;verticalAlign=middle;fontFamily=Helvetica;fontSize=11;fontColor=default;endArrow=none;endFill=0;" edge="1" parent="1" source="L4EmFqghOlZ5tZnvImZ_-4" target="L4EmFqghOlZ5tZnvImZ_-1">
          <mxGeometry relative="1" as="geometry" />
        </mxCell>
        <mxCell id="L4EmFqghOlZ5tZnvImZ_-4" value="Type" style="ellipse;whiteSpace=wrap;html=1;" vertex="1" parent="1">
          <mxGeometry x="2110" y="610" width="90" height="40" as="geometry" />
        </mxCell>
        <mxCell id="L4EmFqghOlZ5tZnvImZ_-15" style="edgeStyle=none;shape=connector;rounded=0;orthogonalLoop=1;jettySize=auto;html=1;exitX=0.5;exitY=0;exitDx=0;exitDy=0;entryX=0.5;entryY=1;entryDx=0;entryDy=0;labelBackgroundColor=default;strokeColor=default;align=center;verticalAlign=middle;fontFamily=Helvetica;fontSize=11;fontColor=default;endArrow=none;endFill=0;" edge="1" parent="1" source="L4EmFqghOlZ5tZnvImZ_-5" target="L4EmFqghOlZ5tZnvImZ_-1">
          <mxGeometry relative="1" as="geometry" />
        </mxCell>
        <mxCell id="L4EmFqghOlZ5tZnvImZ_-5" value="Image Data" style="ellipse;whiteSpace=wrap;html=1;" vertex="1" parent="1">
          <mxGeometry x="2160" y="560" width="90" height="40" as="geometry" />
        </mxCell>
        <mxCell id="L4EmFqghOlZ5tZnvImZ_-18" style="edgeStyle=orthogonalEdgeStyle;shape=link;rounded=0;orthogonalLoop=1;jettySize=auto;html=1;exitX=1;exitY=0.5;exitDx=0;exitDy=0;entryX=0;entryY=0.5;entryDx=0;entryDy=0;labelBackgroundColor=default;strokeColor=default;align=center;verticalAlign=middle;fontFamily=Helvetica;fontSize=11;fontColor=default;endArrow=none;endFill=0;" edge="1" parent="1" source="L4EmFqghOlZ5tZnvImZ_-16" target="L4EmFqghOlZ5tZnvImZ_-1">
          <mxGeometry relative="1" as="geometry" />
        </mxCell>
        <mxCell id="L4EmFqghOlZ5tZnvImZ_-19" value="1" style="edgeLabel;html=1;align=center;verticalAlign=middle;resizable=0;points=[];fontSize=14;fontFamily=Helvetica;fontColor=default;labelBackgroundColor=none;" vertex="1" connectable="0" parent="L4EmFqghOlZ5tZnvImZ_-18">
          <mxGeometry x="0.7566" y="-3" relative="1" as="geometry">
            <mxPoint x="16" y="-12" as="offset" />
          </mxGeometry>
        </mxCell>
        <mxCell id="L4EmFqghOlZ5tZnvImZ_-16" value="&lt;font style=&quot;font-size: 17px;&quot;&gt;Has&lt;/font&gt;" style="rhombus;whiteSpace=wrap;html=1;fontFamily=Helvetica;fontSize=11;fontColor=default;" vertex="1" parent="1">
          <mxGeometry x="1830" y="430" width="60" height="60" as="geometry" />
        </mxCell>
      </root>
    </mxGraphModel>
  </diagram>
  <diagram id="waa8kXdkDyk1az6-12i0" name="Database Schema">
    <mxGraphModel dx="1042" dy="535" grid="1" gridSize="10" guides="1" tooltips="1" connect="1" arrows="1" fold="1" page="1" pageScale="1" pageWidth="1700" pageHeight="1850" math="0" shadow="0">
      <root>
        <mxCell id="0" />
        <mxCell id="1" parent="0" />
        <mxCell id="-M5mP5KsuVL92CTQDLby-1" value="&lt;u&gt;User ID&lt;/u&gt;" style="rounded=0;whiteSpace=wrap;html=1;fontFamily=Helvetica;fontSize=11;fontColor=default;" parent="1" vertex="1">
          <mxGeometry x="240" y="80" width="120" height="40" as="geometry" />
        </mxCell>
        <mxCell id="Fgah20qZIyZNJnb4YaHB-1" value="First Name" style="rounded=0;whiteSpace=wrap;html=1;fontFamily=Helvetica;fontSize=11;fontColor=default;" parent="1" vertex="1">
          <mxGeometry x="360" y="80" width="120" height="40" as="geometry" />
        </mxCell>
        <mxCell id="Fgah20qZIyZNJnb4YaHB-2" value="Last Name" style="rounded=0;whiteSpace=wrap;html=1;fontFamily=Helvetica;fontSize=11;fontColor=default;" parent="1" vertex="1">
          <mxGeometry x="480" y="80" width="120" height="40" as="geometry" />
        </mxCell>
        <mxCell id="Fgah20qZIyZNJnb4YaHB-3" value="Username" style="rounded=0;whiteSpace=wrap;html=1;fontFamily=Helvetica;fontSize=11;fontColor=default;" parent="1" vertex="1">
          <mxGeometry x="600" y="80" width="120" height="40" as="geometry" />
        </mxCell>
        <mxCell id="Fgah20qZIyZNJnb4YaHB-4" value="Email" style="rounded=0;whiteSpace=wrap;html=1;fontFamily=Helvetica;fontSize=11;fontColor=default;" parent="1" vertex="1">
          <mxGeometry x="720" y="80" width="120" height="40" as="geometry" />
        </mxCell>
        <mxCell id="Fgah20qZIyZNJnb4YaHB-5" value="Password" style="rounded=0;whiteSpace=wrap;html=1;fontFamily=Helvetica;fontSize=11;fontColor=default;" parent="1" vertex="1">
          <mxGeometry x="840" y="80" width="120" height="40" as="geometry" />
        </mxCell>
        <mxCell id="CTX19SU2rBwwb3BSenk_-63" style="edgeStyle=orthogonalEdgeStyle;shape=connector;rounded=0;orthogonalLoop=1;jettySize=auto;html=1;labelBackgroundColor=default;strokeColor=default;align=center;verticalAlign=middle;fontFamily=Helvetica;fontSize=11;fontColor=default;endArrow=oval;endFill=1;" parent="1" source="CTX19SU2rBwwb3BSenk_-1" edge="1">
          <mxGeometry relative="1" as="geometry">
            <mxPoint x="300" y="160" as="targetPoint" />
          </mxGeometry>
        </mxCell>
        <mxCell id="CTX19SU2rBwwb3BSenk_-1" value="&lt;u&gt;User ID&lt;/u&gt;" style="rounded=0;whiteSpace=wrap;html=1;fontFamily=Helvetica;fontSize=11;fontColor=default;" parent="1" vertex="1">
          <mxGeometry x="240" y="200" width="120" height="40" as="geometry" />
        </mxCell>
        <mxCell id="CTX19SU2rBwwb3BSenk_-2" value="&lt;u&gt;Phone Number&lt;/u&gt;" style="rounded=0;whiteSpace=wrap;html=1;fontFamily=Helvetica;fontSize=11;fontColor=default;" parent="1" vertex="1">
          <mxGeometry x="360" y="200" width="120" height="40" as="geometry" />
        </mxCell>
        <mxCell id="CTX19SU2rBwwb3BSenk_-8" value="&lt;font style=&quot;font-size: 16px;&quot;&gt;USER&lt;/font&gt;" style="text;html=1;strokeColor=none;fillColor=none;align=center;verticalAlign=middle;whiteSpace=wrap;rounded=0;fontSize=11;fontFamily=Helvetica;fontColor=default;" parent="1" vertex="1">
          <mxGeometry x="10" y="70" width="130" height="60" as="geometry" />
        </mxCell>
        <mxCell id="CTX19SU2rBwwb3BSenk_-64" style="edgeStyle=orthogonalEdgeStyle;shape=connector;rounded=0;orthogonalLoop=1;jettySize=auto;html=1;exitX=0.5;exitY=0;exitDx=0;exitDy=0;labelBackgroundColor=default;strokeColor=default;align=center;verticalAlign=middle;fontFamily=Helvetica;fontSize=11;fontColor=default;endArrow=oval;endFill=1;" parent="1" source="CTX19SU2rBwwb3BSenk_-9" edge="1">
          <mxGeometry relative="1" as="geometry">
            <mxPoint x="180" y="320" as="targetPoint" />
            <Array as="points">
              <mxPoint x="300" y="320" />
            </Array>
          </mxGeometry>
        </mxCell>
        <mxCell id="CTX19SU2rBwwb3BSenk_-9" value="&lt;u&gt;Seller ID&lt;/u&gt;" style="rounded=0;whiteSpace=wrap;html=1;fontFamily=Helvetica;fontSize=11;fontColor=default;" parent="1" vertex="1">
          <mxGeometry x="240" y="360" width="120" height="40" as="geometry" />
        </mxCell>
        <mxCell id="CTX19SU2rBwwb3BSenk_-10" value="Neighborhood" style="rounded=0;whiteSpace=wrap;html=1;fontFamily=Helvetica;fontSize=11;fontColor=default;" parent="1" vertex="1">
          <mxGeometry x="360" y="360" width="120" height="40" as="geometry" />
        </mxCell>
        <mxCell id="CTX19SU2rBwwb3BSenk_-11" value="Unique Identifier" style="rounded=0;whiteSpace=wrap;html=1;fontFamily=Helvetica;fontSize=11;fontColor=default;" parent="1" vertex="1">
          <mxGeometry x="480" y="360" width="120" height="40" as="geometry" />
        </mxCell>
        <mxCell id="CTX19SU2rBwwb3BSenk_-12" value="City" style="rounded=0;whiteSpace=wrap;html=1;fontFamily=Helvetica;fontSize=11;fontColor=default;" parent="1" vertex="1">
          <mxGeometry x="600" y="360" width="120" height="40" as="geometry" />
        </mxCell>
        <mxCell id="CTX19SU2rBwwb3BSenk_-14" value="&lt;font style=&quot;font-size: 16px;&quot;&gt;Seller&lt;/font&gt;" style="text;html=1;strokeColor=none;fillColor=none;align=center;verticalAlign=middle;whiteSpace=wrap;rounded=0;fontSize=16;fontFamily=Helvetica;fontColor=default;" parent="1" vertex="1">
          <mxGeometry y="350" width="130" height="60" as="geometry" />
        </mxCell>
        <mxCell id="CTX19SU2rBwwb3BSenk_-15" value="&lt;u&gt;Widget ID&lt;/u&gt;" style="rounded=0;whiteSpace=wrap;html=1;fontFamily=Helvetica;fontSize=11;fontColor=default;" parent="1" vertex="1">
          <mxGeometry x="240" y="520" width="120" height="40" as="geometry" />
        </mxCell>
        <mxCell id="CTX19SU2rBwwb3BSenk_-16" value="Loss" style="rounded=0;whiteSpace=wrap;html=1;fontFamily=Helvetica;fontSize=11;fontColor=default;" parent="1" vertex="1">
          <mxGeometry x="360" y="520" width="120" height="40" as="geometry" />
        </mxCell>
        <mxCell id="CTX19SU2rBwwb3BSenk_-17" value="Date" style="rounded=0;whiteSpace=wrap;html=1;fontFamily=Helvetica;fontSize=11;fontColor=default;" parent="1" vertex="1">
          <mxGeometry x="480" y="520" width="120" height="40" as="geometry" />
        </mxCell>
        <mxCell id="CTX19SU2rBwwb3BSenk_-18" value="Time" style="rounded=0;whiteSpace=wrap;html=1;fontFamily=Helvetica;fontSize=11;fontColor=default;" parent="1" vertex="1">
          <mxGeometry x="600" y="520" width="120" height="40" as="geometry" />
        </mxCell>
        <mxCell id="CTX19SU2rBwwb3BSenk_-19" value="Revenue" style="rounded=0;whiteSpace=wrap;html=1;fontFamily=Helvetica;fontSize=11;fontColor=default;" parent="1" vertex="1">
          <mxGeometry x="720" y="520" width="120" height="40" as="geometry" />
        </mxCell>
        <mxCell id="CTX19SU2rBwwb3BSenk_-20" value="Profit" style="rounded=0;whiteSpace=wrap;html=1;fontFamily=Helvetica;fontSize=11;fontColor=default;" parent="1" vertex="1">
          <mxGeometry x="840" y="520" width="120" height="40" as="geometry" />
        </mxCell>
        <mxCell id="CTX19SU2rBwwb3BSenk_-21" value="Total Listings" style="rounded=0;whiteSpace=wrap;html=1;fontFamily=Helvetica;fontSize=11;fontColor=default;" parent="1" vertex="1">
          <mxGeometry x="960" y="520" width="120" height="40" as="geometry" />
        </mxCell>
        <mxCell id="CTX19SU2rBwwb3BSenk_-22" value="&lt;font style=&quot;font-size: 16px;&quot;&gt;Statistics&lt;/font&gt;" style="text;html=1;strokeColor=none;fillColor=none;align=center;verticalAlign=middle;whiteSpace=wrap;rounded=0;fontSize=11;fontFamily=Helvetica;fontColor=default;" parent="1" vertex="1">
          <mxGeometry y="510" width="130" height="60" as="geometry" />
        </mxCell>
        <mxCell id="CTX19SU2rBwwb3BSenk_-28" value="&lt;u&gt;Review ID&lt;/u&gt;" style="rounded=0;whiteSpace=wrap;html=1;fontFamily=Helvetica;fontSize=11;fontColor=default;" parent="1" vertex="1">
          <mxGeometry x="240" y="680" width="120" height="40" as="geometry" />
        </mxCell>
        <mxCell id="CTX19SU2rBwwb3BSenk_-29" value="Comment" style="rounded=0;whiteSpace=wrap;html=1;fontFamily=Helvetica;fontSize=11;fontColor=default;" parent="1" vertex="1">
          <mxGeometry x="360" y="680" width="120" height="40" as="geometry" />
        </mxCell>
        <mxCell id="CTX19SU2rBwwb3BSenk_-30" value="Rating" style="rounded=0;whiteSpace=wrap;html=1;fontFamily=Helvetica;fontSize=11;fontColor=default;" parent="1" vertex="1">
          <mxGeometry x="480" y="680" width="120" height="40" as="geometry" />
        </mxCell>
        <mxCell id="CTX19SU2rBwwb3BSenk_-31" value="&lt;font style=&quot;font-size: 16px;&quot;&gt;Review&lt;/font&gt;" style="text;html=1;strokeColor=none;fillColor=none;align=center;verticalAlign=middle;whiteSpace=wrap;rounded=0;fontSize=16;fontFamily=Helvetica;fontColor=default;" parent="1" vertex="1">
          <mxGeometry y="670" width="130" height="60" as="geometry" />
        </mxCell>
        <mxCell id="CTX19SU2rBwwb3BSenk_-33" value="&lt;u&gt;Order ID&lt;/u&gt;" style="rounded=0;whiteSpace=wrap;html=1;fontFamily=Helvetica;fontSize=11;fontColor=default;" parent="1" vertex="1">
          <mxGeometry x="240" y="840" width="120" height="40" as="geometry" />
        </mxCell>
        <mxCell id="CTX19SU2rBwwb3BSenk_-34" value="Order Status" style="rounded=0;whiteSpace=wrap;html=1;fontFamily=Helvetica;fontSize=11;fontColor=default;" parent="1" vertex="1">
          <mxGeometry x="360" y="840" width="120" height="40" as="geometry" />
        </mxCell>
        <mxCell id="CTX19SU2rBwwb3BSenk_-35" value="Quantity" style="rounded=0;whiteSpace=wrap;html=1;fontFamily=Helvetica;fontSize=11;fontColor=default;" parent="1" vertex="1">
          <mxGeometry x="480" y="840" width="120" height="40" as="geometry" />
        </mxCell>
        <mxCell id="CTX19SU2rBwwb3BSenk_-37" value="&lt;font style=&quot;font-size: 16px;&quot;&gt;Order&lt;/font&gt;" style="text;html=1;strokeColor=none;fillColor=none;align=center;verticalAlign=middle;whiteSpace=wrap;rounded=0;fontSize=11;fontFamily=Helvetica;fontColor=default;" parent="1" vertex="1">
          <mxGeometry y="830" width="130" height="60" as="geometry" />
        </mxCell>
        <mxCell id="CTX19SU2rBwwb3BSenk_-38" value="&lt;u&gt;Product ID&lt;/u&gt;" style="rounded=0;whiteSpace=wrap;html=1;fontFamily=Helvetica;fontSize=11;fontColor=default;" parent="1" vertex="1">
          <mxGeometry x="240" y="1000" width="120" height="40" as="geometry" />
        </mxCell>
        <mxCell id="CTX19SU2rBwwb3BSenk_-39" value="Product Name" style="rounded=0;whiteSpace=wrap;html=1;fontFamily=Helvetica;fontSize=11;fontColor=default;" parent="1" vertex="1">
          <mxGeometry x="360" y="1000" width="120" height="40" as="geometry" />
        </mxCell>
        <mxCell id="CTX19SU2rBwwb3BSenk_-40" value="Price" style="rounded=0;whiteSpace=wrap;html=1;fontFamily=Helvetica;fontSize=11;fontColor=default;" parent="1" vertex="1">
          <mxGeometry x="480" y="1000" width="120" height="40" as="geometry" />
        </mxCell>
        <mxCell id="CTX19SU2rBwwb3BSenk_-41" value="Product Status" style="rounded=0;whiteSpace=wrap;html=1;fontFamily=Helvetica;fontSize=11;fontColor=default;" parent="1" vertex="1">
          <mxGeometry x="600" y="1000" width="120" height="40" as="geometry" />
        </mxCell>
        <mxCell id="CTX19SU2rBwwb3BSenk_-42" value="Description" style="rounded=0;whiteSpace=wrap;html=1;fontFamily=Helvetica;fontSize=11;fontColor=default;" parent="1" vertex="1">
          <mxGeometry x="720" y="1000" width="120" height="40" as="geometry" />
        </mxCell>
        <mxCell id="CTX19SU2rBwwb3BSenk_-43" value="&lt;font style=&quot;font-size: 16px;&quot;&gt;Product&lt;/font&gt;" style="text;html=1;strokeColor=none;fillColor=none;align=center;verticalAlign=middle;whiteSpace=wrap;rounded=0;fontSize=16;fontFamily=Helvetica;fontColor=default;" parent="1" vertex="1">
          <mxGeometry y="990" width="130" height="60" as="geometry" />
        </mxCell>
        <mxCell id="CTX19SU2rBwwb3BSenk_-66" style="edgeStyle=orthogonalEdgeStyle;shape=connector;rounded=0;orthogonalLoop=1;jettySize=auto;html=1;exitX=0.5;exitY=0;exitDx=0;exitDy=0;entryX=0.5;entryY=1;entryDx=0;entryDy=0;labelBackgroundColor=default;strokeColor=default;align=center;verticalAlign=middle;fontFamily=Helvetica;fontSize=11;fontColor=default;endArrow=classic;endFill=1;" parent="1" source="CTX19SU2rBwwb3BSenk_-45" target="CTX19SU2rBwwb3BSenk_-38" edge="1">
          <mxGeometry relative="1" as="geometry" />
        </mxCell>
        <mxCell id="CTX19SU2rBwwb3BSenk_-45" value="&lt;u&gt;Product ID&lt;/u&gt;" style="rounded=0;whiteSpace=wrap;html=1;fontFamily=Helvetica;fontSize=11;fontColor=default;" parent="1" vertex="1">
          <mxGeometry x="240" y="1160" width="120" height="40" as="geometry" />
        </mxCell>
        <mxCell id="CTX19SU2rBwwb3BSenk_-46" value="Remainder" style="rounded=0;whiteSpace=wrap;html=1;fontFamily=Helvetica;fontSize=11;fontColor=default;" parent="1" vertex="1">
          <mxGeometry x="360" y="1160" width="120" height="40" as="geometry" />
        </mxCell>
        <mxCell id="CTX19SU2rBwwb3BSenk_-47" value="Discount Offer" style="rounded=0;whiteSpace=wrap;html=1;fontFamily=Helvetica;fontSize=11;fontColor=default;" parent="1" vertex="1">
          <mxGeometry x="480" y="1160" width="120" height="40" as="geometry" />
        </mxCell>
        <mxCell id="CTX19SU2rBwwb3BSenk_-48" value="&lt;font style=&quot;font-size: 16px;&quot;&gt;Wish Item&lt;/font&gt;" style="text;html=1;strokeColor=none;fillColor=none;align=center;verticalAlign=middle;whiteSpace=wrap;rounded=0;fontSize=11;fontFamily=Helvetica;fontColor=default;" parent="1" vertex="1">
          <mxGeometry x="10" y="1150" width="130" height="60" as="geometry" />
        </mxCell>
        <mxCell id="CTX19SU2rBwwb3BSenk_-49" value="Cart ID" style="rounded=0;whiteSpace=wrap;html=1;fontFamily=Helvetica;fontSize=11;fontColor=default;" parent="1" vertex="1">
          <mxGeometry x="960" y="80" width="120" height="40" as="geometry" />
        </mxCell>
        <mxCell id="CTX19SU2rBwwb3BSenk_-50" value="Total Price" style="rounded=0;whiteSpace=wrap;html=1;fontFamily=Helvetica;fontSize=11;fontColor=default;" parent="1" vertex="1">
          <mxGeometry x="1080" y="80" width="120" height="40" as="geometry" />
        </mxCell>
        <mxCell id="CTX19SU2rBwwb3BSenk_-51" value="Creation Date" style="rounded=0;whiteSpace=wrap;html=1;fontFamily=Helvetica;fontSize=11;fontColor=default;" parent="1" vertex="1">
          <mxGeometry x="1200" y="80" width="120" height="40" as="geometry" />
        </mxCell>
        <mxCell id="CTX19SU2rBwwb3BSenk_-52" value="Last Updated Date" style="rounded=0;whiteSpace=wrap;html=1;fontFamily=Helvetica;fontSize=11;fontColor=default;" parent="1" vertex="1">
          <mxGeometry x="1320" y="80" width="120" height="40" as="geometry" />
        </mxCell>
        <mxCell id="CTX19SU2rBwwb3BSenk_-53" value="Coupon Code" style="rounded=0;whiteSpace=wrap;html=1;fontFamily=Helvetica;fontSize=11;fontColor=default;" parent="1" vertex="1">
          <mxGeometry x="1440" y="80" width="120" height="40" as="geometry" />
        </mxCell>
        <mxCell id="CTX19SU2rBwwb3BSenk_-54" value="Number of Items" style="rounded=0;whiteSpace=wrap;html=1;fontFamily=Helvetica;fontSize=11;fontColor=default;" parent="1" vertex="1">
          <mxGeometry x="1560" y="80" width="120" height="40" as="geometry" />
        </mxCell>
        <mxCell id="CTX19SU2rBwwb3BSenk_-56" value="&lt;font style=&quot;font-size: 16px;&quot;&gt;Cart&lt;/font&gt;" style="text;html=1;strokeColor=none;fillColor=none;align=center;verticalAlign=middle;whiteSpace=wrap;rounded=0;fontSize=16;fontFamily=Helvetica;fontColor=default;" parent="1" vertex="1">
          <mxGeometry x="960" y="20" width="100" height="50" as="geometry" />
        </mxCell>
        <mxCell id="CTX19SU2rBwwb3BSenk_-60" style="edgeStyle=orthogonalEdgeStyle;shape=connector;rounded=0;orthogonalLoop=1;jettySize=auto;html=1;exitX=0.5;exitY=0;exitDx=0;exitDy=0;labelBackgroundColor=default;strokeColor=default;align=center;verticalAlign=middle;fontFamily=Helvetica;fontSize=11;fontColor=default;endArrow=classic;endFill=1;entryX=0.5;entryY=1;entryDx=0;entryDy=0;" parent="1" source="CTX19SU2rBwwb3BSenk_-59" target="-M5mP5KsuVL92CTQDLby-1" edge="1">
          <mxGeometry relative="1" as="geometry">
            <mxPoint x="170" y="160" as="targetPoint" />
            <Array as="points">
              <mxPoint x="660" y="640" />
              <mxPoint x="180" y="640" />
              <mxPoint x="180" y="160" />
              <mxPoint x="300" y="160" />
            </Array>
          </mxGeometry>
        </mxCell>
        <mxCell id="CTX19SU2rBwwb3BSenk_-59" value="&lt;u&gt;User ID&lt;/u&gt;" style="rounded=0;whiteSpace=wrap;html=1;fontFamily=Helvetica;fontSize=11;fontColor=default;" parent="1" vertex="1">
          <mxGeometry x="600" y="680" width="120" height="40" as="geometry" />
        </mxCell>
        <mxCell id="CTX19SU2rBwwb3BSenk_-62" style="edgeStyle=orthogonalEdgeStyle;shape=connector;rounded=0;orthogonalLoop=1;jettySize=auto;html=1;exitX=0.5;exitY=0;exitDx=0;exitDy=0;labelBackgroundColor=default;strokeColor=default;align=center;verticalAlign=middle;fontFamily=Helvetica;fontSize=11;fontColor=default;endArrow=oval;endFill=1;" parent="1" source="CTX19SU2rBwwb3BSenk_-61" edge="1">
          <mxGeometry relative="1" as="geometry">
            <mxPoint x="180" y="640" as="targetPoint" />
            <Array as="points">
              <mxPoint x="660" y="820" />
              <mxPoint x="180" y="820" />
            </Array>
          </mxGeometry>
        </mxCell>
        <mxCell id="CTX19SU2rBwwb3BSenk_-61" value="&lt;u&gt;User ID&lt;/u&gt;" style="rounded=0;whiteSpace=wrap;html=1;fontFamily=Helvetica;fontSize=11;fontColor=default;" parent="1" vertex="1">
          <mxGeometry x="600" y="840" width="120" height="40" as="geometry" />
        </mxCell>
        <mxCell id="CTX19SU2rBwwb3BSenk_-67" style="edgeStyle=orthogonalEdgeStyle;shape=connector;rounded=0;orthogonalLoop=1;jettySize=auto;html=1;exitX=0.5;exitY=0;exitDx=0;exitDy=0;labelBackgroundColor=default;strokeColor=default;align=center;verticalAlign=middle;fontFamily=Helvetica;fontSize=11;fontColor=default;endArrow=oval;endFill=1;jumpStyle=arc;jumpSize=8;" parent="1" source="CTX19SU2rBwwb3BSenk_-65" edge="1">
          <mxGeometry relative="1" as="geometry">
            <mxPoint x="180" y="818.72001953125" as="targetPoint" />
            <Array as="points">
              <mxPoint x="660" y="1130" />
              <mxPoint x="180" y="1130" />
            </Array>
          </mxGeometry>
        </mxCell>
        <mxCell id="CTX19SU2rBwwb3BSenk_-65" value="&lt;u&gt;User ID&lt;/u&gt;" style="rounded=0;whiteSpace=wrap;html=1;fontFamily=Helvetica;fontSize=11;fontColor=default;" parent="1" vertex="1">
          <mxGeometry x="600" y="1160" width="120" height="40" as="geometry" />
        </mxCell>
        <mxCell id="CTX19SU2rBwwb3BSenk_-69" style="edgeStyle=orthogonalEdgeStyle;shape=connector;rounded=0;orthogonalLoop=1;jettySize=auto;html=1;exitX=0.5;exitY=0;exitDx=0;exitDy=0;entryX=0.5;entryY=1;entryDx=0;entryDy=0;labelBackgroundColor=default;strokeColor=default;align=center;verticalAlign=middle;fontFamily=Helvetica;fontSize=11;fontColor=default;endArrow=classic;endFill=1;" parent="1" source="CTX19SU2rBwwb3BSenk_-68" target="CTX19SU2rBwwb3BSenk_-9" edge="1">
          <mxGeometry relative="1" as="geometry" />
        </mxCell>
        <mxCell id="CTX19SU2rBwwb3BSenk_-68" value="&lt;u style=&quot;border-color: var(--border-color);&quot;&gt;Seller ID&lt;/u&gt;" style="rounded=0;whiteSpace=wrap;html=1;fontFamily=Helvetica;fontSize=11;fontColor=default;" parent="1" vertex="1">
          <mxGeometry x="1080" y="520" width="120" height="40" as="geometry" />
        </mxCell>
        <mxCell id="CTX19SU2rBwwb3BSenk_-71" style="edgeStyle=orthogonalEdgeStyle;shape=connector;rounded=0;orthogonalLoop=1;jettySize=auto;html=1;exitX=0.5;exitY=0;exitDx=0;exitDy=0;labelBackgroundColor=default;strokeColor=default;align=center;verticalAlign=middle;fontFamily=Helvetica;fontSize=11;fontColor=default;endArrow=oval;endFill=1;" parent="1" source="CTX19SU2rBwwb3BSenk_-70" edge="1">
          <mxGeometry relative="1" as="geometry">
            <mxPoint x="300" y="460" as="targetPoint" />
            <Array as="points">
              <mxPoint x="780" y="820" />
              <mxPoint x="1230" y="820" />
              <mxPoint x="1230" y="600" />
              <mxPoint x="210" y="600" />
              <mxPoint x="210" y="460" />
            </Array>
          </mxGeometry>
        </mxCell>
        <mxCell id="CTX19SU2rBwwb3BSenk_-70" value="&lt;u&gt;Seller ID&lt;/u&gt;" style="rounded=0;whiteSpace=wrap;html=1;fontFamily=Helvetica;fontSize=11;fontColor=default;" parent="1" vertex="1">
          <mxGeometry x="720" y="840" width="120" height="40" as="geometry" />
        </mxCell>
        <mxCell id="TUnGjRhdyxQoD4PNnD5X-1" value="Date" style="rounded=0;whiteSpace=wrap;html=1;fontFamily=Helvetica;fontSize=11;fontColor=default;" parent="1" vertex="1">
          <mxGeometry x="720" y="680" width="120" height="40" as="geometry" />
        </mxCell>
        <mxCell id="TUnGjRhdyxQoD4PNnD5X-2" value="&lt;span style=&quot;border-color: var(--border-color);&quot;&gt;Time&lt;/span&gt;" style="rounded=0;whiteSpace=wrap;html=1;fontFamily=Helvetica;fontSize=11;fontColor=default;" parent="1" vertex="1">
          <mxGeometry x="840" y="680" width="120" height="40" as="geometry" />
        </mxCell>
        <mxCell id="TUnGjRhdyxQoD4PNnD5X-3" value="Date" style="rounded=0;whiteSpace=wrap;html=1;fontFamily=Helvetica;fontSize=11;fontColor=default;" parent="1" vertex="1">
          <mxGeometry x="840" y="840" width="120" height="40" as="geometry" />
        </mxCell>
        <mxCell id="TUnGjRhdyxQoD4PNnD5X-4" value="&lt;span style=&quot;border-color: var(--border-color);&quot;&gt;Time&lt;/span&gt;" style="rounded=0;whiteSpace=wrap;html=1;fontFamily=Helvetica;fontSize=11;fontColor=default;" parent="1" vertex="1">
          <mxGeometry x="960" y="840" width="120" height="40" as="geometry" />
        </mxCell>
        <mxCell id="WdBlaPuk-d6XCIAQ6F0F-2" style="edgeStyle=orthogonalEdgeStyle;shape=connector;rounded=0;orthogonalLoop=1;jettySize=auto;html=1;exitX=0.5;exitY=0;exitDx=0;exitDy=0;labelBackgroundColor=default;strokeColor=default;align=center;verticalAlign=middle;fontFamily=Helvetica;fontSize=11;fontColor=default;endArrow=oval;endFill=1;jumpStyle=arc;jumpSize=9;" parent="1" source="WdBlaPuk-d6XCIAQ6F0F-1" edge="1">
          <mxGeometry relative="1" as="geometry">
            <mxPoint x="300" y="1080" as="targetPoint" />
            <Array as="points">
              <mxPoint x="1140" y="640" />
              <mxPoint x="1270" y="640" />
              <mxPoint x="1270" y="1080" />
            </Array>
          </mxGeometry>
        </mxCell>
        <mxCell id="WdBlaPuk-d6XCIAQ6F0F-1" value="&lt;u&gt;Product ID&lt;/u&gt;" style="rounded=0;whiteSpace=wrap;html=1;fontFamily=Helvetica;fontSize=11;fontColor=default;" parent="1" vertex="1">
          <mxGeometry x="1080" y="680" width="120" height="40" as="geometry" />
        </mxCell>
        <mxCell id="WdBlaPuk-d6XCIAQ6F0F-4" style="edgeStyle=orthogonalEdgeStyle;shape=connector;rounded=0;orthogonalLoop=1;jettySize=auto;html=1;exitX=0.5;exitY=0;exitDx=0;exitDy=0;labelBackgroundColor=default;strokeColor=default;align=center;verticalAlign=middle;fontFamily=Helvetica;fontSize=11;fontColor=default;endArrow=oval;endFill=1;" parent="1" source="WdBlaPuk-d6XCIAQ6F0F-3" edge="1">
          <mxGeometry relative="1" as="geometry">
            <mxPoint x="1020.2432432432429" y="600" as="targetPoint" />
          </mxGeometry>
        </mxCell>
        <mxCell id="WdBlaPuk-d6XCIAQ6F0F-3" value="&lt;u&gt;Seller ID&lt;/u&gt;" style="rounded=0;whiteSpace=wrap;html=1;fontFamily=Helvetica;fontSize=11;fontColor=default;" parent="1" vertex="1">
          <mxGeometry x="960" y="680" width="120" height="40" as="geometry" />
        </mxCell>
        <mxCell id="WdBlaPuk-d6XCIAQ6F0F-9" style="edgeStyle=orthogonalEdgeStyle;shape=connector;rounded=0;orthogonalLoop=1;jettySize=auto;html=1;exitX=0.5;exitY=0;exitDx=0;exitDy=0;labelBackgroundColor=default;strokeColor=default;align=center;verticalAlign=middle;fontFamily=Helvetica;fontSize=11;fontColor=default;endArrow=classic;endFill=1;entryX=0.5;entryY=1;entryDx=0;entryDy=0;jumpStyle=arc;jumpSize=9;" parent="1" source="WdBlaPuk-d6XCIAQ6F0F-5" target="CTX19SU2rBwwb3BSenk_-33" edge="1">
          <mxGeometry relative="1" as="geometry">
            <Array as="points">
              <mxPoint x="300" y="1300" />
              <mxPoint x="140" y="1300" />
              <mxPoint x="140" y="950" />
              <mxPoint x="300" y="950" />
            </Array>
          </mxGeometry>
        </mxCell>
        <mxCell id="WdBlaPuk-d6XCIAQ6F0F-5" value="&lt;u&gt;Order ID&lt;/u&gt;" style="rounded=0;whiteSpace=wrap;html=1;fontFamily=Helvetica;fontSize=11;fontColor=default;" parent="1" vertex="1">
          <mxGeometry x="240" y="1320" width="120" height="40" as="geometry" />
        </mxCell>
        <mxCell id="WdBlaPuk-d6XCIAQ6F0F-6" value="&lt;font style=&quot;font-size: 16px;&quot;&gt;Orders have Products&lt;/font&gt;" style="text;html=1;strokeColor=none;fillColor=none;align=center;verticalAlign=middle;whiteSpace=wrap;rounded=0;fontSize=11;fontFamily=Helvetica;fontColor=default;" parent="1" vertex="1">
          <mxGeometry y="1310" width="130" height="60" as="geometry" />
        </mxCell>
        <mxCell id="WdBlaPuk-d6XCIAQ6F0F-8" style="edgeStyle=orthogonalEdgeStyle;shape=connector;rounded=0;orthogonalLoop=1;jettySize=auto;html=1;exitX=0.5;exitY=0;exitDx=0;exitDy=0;labelBackgroundColor=default;strokeColor=default;align=center;verticalAlign=middle;fontFamily=Helvetica;fontSize=11;fontColor=default;endArrow=oval;endFill=1;" parent="1" source="WdBlaPuk-d6XCIAQ6F0F-7" edge="1">
          <mxGeometry relative="1" as="geometry">
            <mxPoint x="300" y="1080" as="targetPoint" />
            <Array as="points">
              <mxPoint x="420" y="1260" />
              <mxPoint x="200" y="1260" />
              <mxPoint x="200" y="1080" />
            </Array>
          </mxGeometry>
        </mxCell>
        <mxCell id="WdBlaPuk-d6XCIAQ6F0F-7" value="&lt;u&gt;Product ID&lt;/u&gt;" style="rounded=0;whiteSpace=wrap;html=1;fontFamily=Helvetica;fontSize=11;fontColor=default;" parent="1" vertex="1">
          <mxGeometry x="360" y="1320" width="120" height="40" as="geometry" />
        </mxCell>
        <mxCell id="WdBlaPuk-d6XCIAQ6F0F-13" style="edgeStyle=orthogonalEdgeStyle;shape=connector;rounded=0;orthogonalLoop=1;jettySize=auto;html=1;exitX=0.5;exitY=0;exitDx=0;exitDy=0;labelBackgroundColor=default;strokeColor=default;align=center;verticalAlign=middle;fontFamily=Helvetica;fontSize=11;fontColor=default;endArrow=oval;endFill=1;" parent="1" source="WdBlaPuk-d6XCIAQ6F0F-10" edge="1">
          <mxGeometry relative="1" as="geometry">
            <mxPoint x="420" y="1260" as="targetPoint" />
            <Array as="points">
              <mxPoint x="300" y="1410" />
              <mxPoint x="530" y="1410" />
              <mxPoint x="530" y="1260" />
            </Array>
          </mxGeometry>
        </mxCell>
        <mxCell id="WdBlaPuk-d6XCIAQ6F0F-10" value="&lt;u&gt;Product ID&lt;/u&gt;" style="rounded=0;whiteSpace=wrap;html=1;fontFamily=Helvetica;fontSize=11;fontColor=default;" parent="1" vertex="1">
          <mxGeometry x="240" y="1480" width="120" height="40" as="geometry" />
        </mxCell>
        <mxCell id="WdBlaPuk-d6XCIAQ6F0F-11" value="&lt;font style=&quot;font-size: 16px;&quot;&gt;Products in carts&lt;/font&gt;" style="text;html=1;strokeColor=none;fillColor=none;align=center;verticalAlign=middle;whiteSpace=wrap;rounded=0;fontSize=11;fontFamily=Helvetica;fontColor=default;" parent="1" vertex="1">
          <mxGeometry y="1470" width="130" height="60" as="geometry" />
        </mxCell>
        <mxCell id="WdBlaPuk-d6XCIAQ6F0F-14" style="edgeStyle=orthogonalEdgeStyle;shape=connector;rounded=0;orthogonalLoop=1;jettySize=auto;html=1;exitX=0.5;exitY=0;exitDx=0;exitDy=0;labelBackgroundColor=default;strokeColor=default;align=center;verticalAlign=middle;fontFamily=Helvetica;fontSize=11;fontColor=default;endArrow=oval;endFill=1;" parent="1" source="WdBlaPuk-d6XCIAQ6F0F-12" edge="1">
          <mxGeometry relative="1" as="geometry">
            <mxPoint x="300" y="160" as="targetPoint" />
            <Array as="points">
              <mxPoint x="420" y="1430" />
              <mxPoint x="1320" y="1430" />
              <mxPoint x="1320" y="160" />
              <mxPoint x="1020" y="160" />
            </Array>
          </mxGeometry>
        </mxCell>
        <mxCell id="WdBlaPuk-d6XCIAQ6F0F-12" value="&lt;u style=&quot;border-color: var(--border-color);&quot;&gt;User ID&lt;/u&gt;" style="rounded=0;whiteSpace=wrap;html=1;fontFamily=Helvetica;fontSize=11;fontColor=default;" parent="1" vertex="1">
          <mxGeometry x="360" y="1480" width="120" height="40" as="geometry" />
        </mxCell>
        <mxCell id="WdBlaPuk-d6XCIAQ6F0F-18" style="edgeStyle=orthogonalEdgeStyle;shape=connector;rounded=0;orthogonalLoop=1;jettySize=auto;html=1;exitX=0.5;exitY=0;exitDx=0;exitDy=0;labelBackgroundColor=default;strokeColor=default;align=center;verticalAlign=middle;fontFamily=Helvetica;fontSize=11;fontColor=default;endArrow=oval;endFill=1;jumpStyle=arc;jumpSize=9;" parent="1" source="WdBlaPuk-d6XCIAQ6F0F-15" edge="1">
          <mxGeometry relative="1" as="geometry">
            <mxPoint x="180" y="1130" as="targetPoint" />
            <Array as="points">
              <mxPoint x="300" y="1620" />
              <mxPoint x="180" y="1620" />
            </Array>
          </mxGeometry>
        </mxCell>
        <mxCell id="WdBlaPuk-d6XCIAQ6F0F-15" value="&lt;u style=&quot;border-color: var(--border-color);&quot;&gt;User ID&lt;/u&gt;" style="rounded=0;whiteSpace=wrap;html=1;fontFamily=Helvetica;fontSize=11;fontColor=default;" parent="1" vertex="1">
          <mxGeometry x="240" y="1640" width="120" height="40" as="geometry" />
        </mxCell>
        <mxCell id="WdBlaPuk-d6XCIAQ6F0F-17" style="edgeStyle=orthogonalEdgeStyle;shape=connector;rounded=0;orthogonalLoop=1;jettySize=auto;html=1;exitX=0.5;exitY=0;exitDx=0;exitDy=0;entryX=0.5;entryY=1;entryDx=0;entryDy=0;labelBackgroundColor=default;strokeColor=default;align=center;verticalAlign=middle;fontFamily=Helvetica;fontSize=11;fontColor=default;endArrow=classic;endFill=1;jumpStyle=arc;jumpSize=9;" parent="1" source="WdBlaPuk-d6XCIAQ6F0F-16" target="CTX19SU2rBwwb3BSenk_-45" edge="1">
          <mxGeometry relative="1" as="geometry">
            <Array as="points">
              <mxPoint x="420" y="1620" />
              <mxPoint x="690" y="1620" />
              <mxPoint x="690" y="1230" />
              <mxPoint x="300" y="1230" />
            </Array>
          </mxGeometry>
        </mxCell>
        <mxCell id="WdBlaPuk-d6XCIAQ6F0F-16" value="&lt;u style=&quot;border-color: var(--border-color);&quot;&gt;Product ID&lt;/u&gt;" style="rounded=0;whiteSpace=wrap;html=1;fontFamily=Helvetica;fontSize=11;fontColor=default;" parent="1" vertex="1">
          <mxGeometry x="360" y="1640" width="120" height="40" as="geometry" />
        </mxCell>
        <mxCell id="WdBlaPuk-d6XCIAQ6F0F-19" value="&lt;font style=&quot;font-size: 16px;&quot;&gt;&lt;font style=&quot;font-size: 16px;&quot;&gt;USER Phone Numbe&lt;/font&gt;&lt;font style=&quot;font-size: 16px;&quot;&gt;r&lt;/font&gt;&lt;/font&gt;" style="text;html=1;strokeColor=none;fillColor=none;align=center;verticalAlign=middle;whiteSpace=wrap;rounded=0;fontSize=11;fontFamily=Helvetica;fontColor=default;" parent="1" vertex="1">
          <mxGeometry x="20" y="180" width="130" height="60" as="geometry" />
        </mxCell>
        <mxCell id="WdBlaPuk-d6XCIAQ6F0F-20" value="&lt;font style=&quot;font-size: 16px;&quot;&gt;Users have Wish Item&lt;/font&gt;" style="text;html=1;strokeColor=none;fillColor=none;align=center;verticalAlign=middle;whiteSpace=wrap;rounded=0;fontSize=11;fontFamily=Helvetica;fontColor=default;" parent="1" vertex="1">
          <mxGeometry x="20" y="1620" width="130" height="60" as="geometry" />
        </mxCell>
        <mxCell id="kdMrLrAufBTyURcayScP-1" value="&lt;u&gt;Image ID&lt;/u&gt;" style="rounded=0;whiteSpace=wrap;html=1;fontFamily=Helvetica;fontSize=11;fontColor=default;" vertex="1" parent="1">
          <mxGeometry x="240" y="1760" width="120" height="40" as="geometry" />
        </mxCell>
        <mxCell id="kdMrLrAufBTyURcayScP-2" value="Name" style="rounded=0;whiteSpace=wrap;html=1;fontFamily=Helvetica;fontSize=11;fontColor=default;" vertex="1" parent="1">
          <mxGeometry x="360" y="1760" width="120" height="40" as="geometry" />
        </mxCell>
        <mxCell id="kdMrLrAufBTyURcayScP-3" value="Type" style="rounded=0;whiteSpace=wrap;html=1;fontFamily=Helvetica;fontSize=11;fontColor=default;" vertex="1" parent="1">
          <mxGeometry x="480" y="1760" width="120" height="40" as="geometry" />
        </mxCell>
        <mxCell id="kdMrLrAufBTyURcayScP-4" value="&lt;u&gt;Image Data&lt;/u&gt;" style="rounded=0;whiteSpace=wrap;html=1;fontFamily=Helvetica;fontSize=11;fontColor=default;" vertex="1" parent="1">
          <mxGeometry x="600" y="1760" width="120" height="40" as="geometry" />
        </mxCell>
        <mxCell id="mv1jNgYLJc_XqyfkMKim-2" style="edgeStyle=orthogonalEdgeStyle;shape=connector;rounded=0;orthogonalLoop=1;jettySize=auto;html=1;exitX=0.5;exitY=0;exitDx=0;exitDy=0;labelBackgroundColor=default;strokeColor=default;align=center;verticalAlign=middle;fontFamily=Helvetica;fontSize=11;fontColor=default;endArrow=oval;endFill=1;jumpStyle=arc;jumpSize=9;" edge="1" parent="1" source="mv1jNgYLJc_XqyfkMKim-1">
          <mxGeometry relative="1" as="geometry">
            <mxPoint x="780" y="1080" as="targetPoint" />
            <Array as="points">
              <mxPoint x="780" y="1090" />
              <mxPoint x="780" y="1090" />
            </Array>
          </mxGeometry>
        </mxCell>
        <mxCell id="mv1jNgYLJc_XqyfkMKim-1" value="&lt;u&gt;Product ID&lt;/u&gt;" style="rounded=0;whiteSpace=wrap;html=1;fontFamily=Helvetica;fontSize=11;fontColor=default;" vertex="1" parent="1">
          <mxGeometry x="720" y="1760" width="120" height="40" as="geometry" />
        </mxCell>
        <mxCell id="mv1jNgYLJc_XqyfkMKim-3" value="&lt;font style=&quot;font-size: 16px;&quot;&gt;Image&lt;/font&gt;" style="text;html=1;strokeColor=none;fillColor=none;align=center;verticalAlign=middle;whiteSpace=wrap;rounded=0;fontSize=11;fontFamily=Helvetica;fontColor=default;" vertex="1" parent="1">
          <mxGeometry x="20" y="1740" width="130" height="60" as="geometry" />
        </mxCell>
      </root>
    </mxGraphModel>
  </diagram>
</mxfile>
